<?xml version="1.0" encoding="utf-8"?>
<!-- Generator: Adobe Illustrator 18.1.1, SVG Export Plug-In . SVG Version: 6.00 Build 0)  -->
<svg version="1.1" id="Layer_1" xmlns="http://www.w3.org/2000/svg" xmlns:xlink="http://www.w3.org/1999/xlink" x="0px" y="0px"
	 viewBox="0 0 811.7 207.9" enable-background="new 0 0 811.7 207.9" xml:space="preserve">
<g id="lOHdOb_1_">
	<g>
		<path d="M380.9,0c4.5,1.9,9.2,3.4,13.3,5.9c3,1.8,5.5,4.7,7.6,7.6c2.2,3,0.9,6.3-2.2,7.4c-1.9,0.7-4.7-0.8-6.9-1.7
			c-0.9-0.4-1.4-1.8-1.9-2.9c-4.5-10.6-15.5-12.7-25.7-8.6c-9.9,4.1-17,15.4-15.6,25.3c1.3,8.6,8.5,14.2,17.8,13.3
			c4.2-0.4,8.5-1.5,12.6-2.7c3.4-0.9,6.1-0.7,8.2,3.7c-6.8,2.3-13.3,4.4-19.8,6.6c-11,3.8-21.4,8.9-30.1,16.8
			c-20.7,18.7-15.2,53.6,11,64.7c20.1,8.5,39.1,7.2,56.6-5.8c9.7-7.2,14.4-17.4,12.9-29.5c-1.4-10.6-11.2-21-27.5-20.8
			c-6.9,0.1-13.5,1.3-19.5,4.9c-9.2,5.3-12.2,18-5.8,24.6c3.3,3.4,7.7,3.4,10.9-0.2c0.9-1,1.6-2.1,2.5-3.1c2.5-2.9,5.6-3.3,8.3-0.7
			c2.9,2.8,1.5,6-1.1,8.2c-9.1,7.6-24.6,4.5-28.3-7c-3.9-11.9,2.1-26.1,14.1-32.5c8.5-4.5,17.7-6.2,27.3-6.6
			c11.1-0.4,22.4-0.1,33.1-2.3c14.9-3,21.2-20.6,11.8-31.2c-5.3-5.9-14.5-7-20.7-2.1c-3.1,2.4-4.6,5.2-2.9,9.5c0.8,2,0,5.1-1.2,7.1
			c-0.6,0.9-4.7,0.9-5.6-0.1c-1.4-1.7-2.3-4.6-2-6.8c1.6-13.3,15.6-20,26.2-17.6c13,2.9,21.2,17.5,18.3,30.4
			c-3.6,16.5-20.1,24.3-32.3,26.1c-3.1,0.4-6.1,0.9-9.8,1.4c1,1.3,1.5,2.1,2.1,2.7c12.8,11.8,13.7,30.3,3.6,44.7
			c-10.7,15.2-26,22.8-43.9,26.2c-14.9,2.8-29.5,2-43.3-4.1c-18-7.9-31-22.9-30.5-43.2c0.3-16.5,8-30.2,21.3-39.7
			c8.2-5.9,17.7-10,26.7-14.9c0.7-0.4,1.4-0.8,1.9-1.2c-3.4-2.6-6.9-4.7-9.9-7.5c-11.9-11.4-7.9-25.2,1.6-33.9
			c6-5.6,13.5-8.1,21-10.3C370.3,0,375.6,0,380.9,0z"/>
		<path d="M87.9,0c5.7,2.3,11.9,3.9,17,7.2c14.1,9,20.5,22.9,22.9,38.9c3.5,23.8-2.2,45.7-14.1,66.1c-9.1,15.7-21.1,28.6-37.2,37.1
			c-26.7,14-60.2,6.2-72-26c-4.9-13.4-5.8-27.5-2.8-42.1c5.1-24.7,16.8-45.4,35-62.4C46.3,9.9,57.3,3.3,70.4,0.8
			c0.2,0,0.3-0.5,0.5-0.8C76.6,0,82.3,0,87.9,0z M23.8,104.5c0.2,21.2,2.8,29.9,9.3,38.3c5,6.5,13.2,9.2,21.1,7.7
			c14.9-2.8,24.2-12.8,30.8-25.1c16-29.8,23.5-61.6,19.8-95.5c-2.1-18.8-15-28.7-32.6-23.6c-10.4,3-18.2,10.1-24,19.1
			C31.7,50.8,25.8,79.4,23.8,104.5z"/>
		<path d="M545.9,0c6.2,2.8,13,4.9,18.5,8.6c12,8.2,17.6,20.6,20.4,34.5c5.3,26.4-2.1,50.2-15.7,72.3c-10.5,17-24.5,30.4-43.7,37.5
			c-28.5,10.4-58.8-6.6-65.4-36.2c-6.7-30,2.1-56.2,18.9-80.5c9.8-14.2,22.1-25.6,38.3-32.2C521,2.6,525,1.4,528.9,0
			C534.6,0,540.3,0,545.9,0z M564.8,44.5c-1.7-8.5-2.7-16.2-4.7-23.7c-2.6-9.4-12-16.2-21.7-15.8c-16,0.6-26.9,10.1-34.3,22.9
			c-16.5,28.3-24.3,59.1-22,92c0.7,9.7,3.8,18.8,11.4,25.7c5.1,4.6,11,6.1,17.8,5c12.6-2,21.2-9.7,28-19.7
			c9.8-14.4,15.7-30.5,19-47.5C560.7,70.3,562.7,57,564.8,44.5z"/>
		<path d="M746.9,0c-4.1,13.7-8.1,27.5-12.2,41.2c-7.6,25.4-15.3,50.7-23,76.1c-2.1,7.1-4.3,14.2-6.3,21.3c-0.4,1.6-0.5,3.3-0.5,4.9
			c0.2,5.3,4.3,7.7,8.8,5c7.4-4.3,11.6-11.2,14.6-18.9c1.3-3.2,3-4.5,6.8-2.9c-4.1,10.4-8.9,20.1-18.5,26.4
			c-6.8,4.4-14,4.8-20.9,0.1c-6.7-4.6-7.3-11.4-5.3-18.5c5.2-18.1,10.5-36.1,15.9-54.1c6.2-20.7,12.5-41.3,18.6-62
			c2.2-7.4,1.1-8.6-6.7-9.3c-1.6-0.1-3.3-0.3-5.1-0.4c-0.4-4.3,2.4-4.5,5.3-4.8c7.7-0.9,15.4-2,23.1-3c0.5-0.1,0.9-0.7,1.4-1
			C744.3,0,745.6,0,746.9,0z"/>
		<path d="M626.5,90.9c2.9-4.5,5.6-9.3,8.8-13.6c5.4-7.2,11.1-14.1,20-17.3c7-2.5,13.6-1.4,19.1,3.4c5.3,4.6,6,11.2,4,17.5
			c-5.3,17.4-11.1,34.6-16.6,52c-1.1,3.4-2.3,6.9-2.9,10.4c-0.3,1.6,0.5,4.8,1.5,5c1.9,0.6,5,0.5,6.3-0.8c3.8-3.6,7.2-7.7,10.4-11.9
			c2.7-3.4,2.5-3.6,7.3-3.2c-4.1,13.1-15.7,23.5-28.8,24.1c-9,0.4-15.3-6-13.1-14.9c2.8-11.2,6.8-22,10.4-33
			c3.5-10.8,7.3-21.6,10.4-32.6c0.7-2.6,0-6.6-1.7-8.5c-2.3-2.7-6.3-2.2-9,0.3c-4.8,4.3-10,8.3-13.7,13.3
			c-13.5,18.2-21.2,39.1-27.6,60.6c-4,13.4-3.8,13.4-17.7,13c-0.7,0-1.3-0.1-2.8-0.3c1.1-3.9,2.1-7.6,3.2-11.3
			c6.7-21.9,13.5-43.8,20-65.7c0.8-2.6-0.2-5.8-0.4-8.7c-2.6,1.2-5.6,1.8-7.5,3.6c-2.9,2.8-4.9,6.7-7.6,9.7
			c-1.3,1.5-3.5,2.2-5.9,2.5c5.8-11.3,12.7-21.2,25.2-25.3c6.5-2.1,12.3,2,12,9.1c-0.3,6.5-2.2,13-3.4,19.5
			c-0.2,0.9-0.3,1.8-0.5,2.6C626,90.7,626.3,90.8,626.5,90.9z"/>
		<path d="M131.8,83.5c5.7-9.7,12.2-18.8,23.2-23.3c9.2-3.7,15.7,1.4,14.2,11.3c-1,6.8-2.6,13.5-4,20.6c4.6-6.7,8.6-13.3,13.4-19.4
			c5.5-7,11.9-13.1,21.6-13.7c13.5-0.8,22.1,9.7,18.1,22.7c-5.7,18.3-11.9,36.4-17.9,54.6c-0.2,0.5-0.4,0.9-0.5,1.4
			c-0.9,3.7-3.9,8.2,0.4,10.8c4.1,2.5,7.4-1.7,10.2-4.4c2.5-2.4,4.8-5.2,6.3-8.3c1.8-3.5,4-4.6,8.1-3.2
			c-5.8,11.2-12.6,20.9-26.1,23.3c-12.4,2.2-19.7-5.9-15.8-18c5.6-17.6,11.8-35.1,17.6-52.6c1.2-3.4,2.5-6.9,2.9-10.5
			c0.2-2.3-0.5-5.6-2.1-6.9c-1.6-1.4-5.5-2.1-7.1-1c-5.1,3.5-10.5,7.2-14.2,12c-13.7,17.8-21.8,38.4-28.2,59.8
			c-0.3,1.1-0.6,2.2-0.9,3.3c-4.4,14.3-4.4,14.3-20.6,12.2c1.4-4.6,2.7-9.1,4-13.6c6.7-22.1,13.6-44.1,20.2-66.2
			c0.5-1.6-0.4-3.6-0.7-5.4c-1.8,0.3-4.3,0-5.4,1.1c-3.6,3.6-6.6,7.8-10,11.6c-1.4,1.5-3.4,2.5-5.1,3.7
			C132.8,84.8,132.3,84.2,131.8,83.5z"/>
		<path d="M773.1,147.5c4.2-5.7,7.8-10.1,11-14.8c7.5-10.9,14.1-22.3,17.6-35.3c2.3-8.4,2.2-16.2-2.9-23.8c-1.6-2.3-2.5-5.6-2.4-8.4
			c0.1-2,1.9-5,3.7-5.7c1.7-0.7,5.2,0.1,6.6,1.5c5.2,5.4,5.5,12.5,4.8,19.6c-1.5,16.7-8.3,31.5-17,45.5
			c-15.2,24.4-34.5,45.4-56.1,64.3c-8.3,7.3-16.9,14.2-27.9,16.4c-6.2,1.2-12.8,1.3-19.1,0.5c-2.3-0.3-5.2-4-5.9-6.7
			c-1-3.7,2.1-6.6,5.6-6.9c4.3-0.4,9-0.2,13.1,1.2c9.1,3.2,16.9,1.1,24.9-3.7c19.3-11.5,27.4-29,30.5-50.6
			c2.4-17.2,3.3-34.3,2.5-51.5c-0.2-5.3-2-10.7-3.7-15.7c-0.7-1.9-3.5-4.3-5.2-4.2c-2.1,0.1-4.8,2.3-5.8,4.3
			c-1.7,3.3-2.3,7.2-3.2,10.8c-0.7,2.9-1.2,5.7-5.7,4.1c0.8-9.2,2.5-18.3,9.1-25.3c8.3-8.7,23.3-3.5,27.4,9.3
			c4.8,14.9,3.7,30.2,2.5,45.4C776.3,127.3,774.6,136.5,773.1,147.5z"/>
		<path d="M287,124.8c-5.3,13-13,23.5-25.5,29.6c-15.6,7.6-33-4.4-33.4-22.9c-0.5-18.6,7-34.4,18.1-48.7c7-9,15.3-16.6,25.8-21.4
			c2.5-1.1,5.3-1.9,8.1-2.2c5.6-0.6,11.1,0,14.7,5.1c4.7,6.6,3.7,13.4,0,20c-5,9-12.7,15.3-21.5,20.2c-7.5,4.2-15.4,7.6-23.1,11.5
			c-1.4,0.7-3,2.2-3.4,3.6c-1.3,4.9-2.4,10-2.9,15c-0.6,5.4,0.8,10.6,5.6,13.6c5.2,3.2,10.5,1.3,15.4-1.6
			c7.3-4.4,11.2-11.6,14.9-18.8C281.3,124.6,283,123.3,287,124.8z M249.5,109.6c0.4,0.4,0.8,0.8,1.2,1.2c5.1-3.4,10.4-6.4,15.1-10.1
			c8.1-6.2,15.4-13.2,19-23.1c1.5-4.1,2-8.3-2-11.3c-4.2-3.2-7.8-0.5-10.7,2C259.4,79.2,254.2,94.3,249.5,109.6z"/>
	</g>
</g>
</svg>
