<?xml version="1.0" encoding="utf-8"?>
<!-- Generator: Adobe Illustrator 18.1.1, SVG Export Plug-In . SVG Version: 6.00 Build 0)  -->
<svg version="1.1" id="Layer_1" xmlns="http://www.w3.org/2000/svg" xmlns:xlink="http://www.w3.org/1999/xlink" x="0px" y="0px"
	 viewBox="0 0 1280 891.7" enable-background="new 0 0 1280 891.7" xml:space="preserve">
<g>
	<path d="M693,0c7.4,1.1,12.4,6,17.1,11.2c5.8,6.5,11.4,13,17.2,19.5c3.6,4,7.8,6.5,13.4,6.7c5.3,0.2,10.6,0.9,15.8,2.1
		c19.6,4.3,29.3,17.6,32.4,36.6c2,11.8,3.9,23.6,6.1,35.4c1.4,7.3,4.3,13.9,10.3,18.9c1.7,1.4,3,3.6,4.2,5.5c2.1,3.2,1.9,5.9-2,7.6
		c-3.9,1.7-3.5,4.3-1.2,7.2c4.6,5.5,9.7,10.6,13.7,16.5c3.3,4.9,6.1,10.4,7.5,16.1c2.2,9,0.6,10.7-9,12.9c1.2,6.1,2,12.4,3.8,18.3
		c7.5,24.7,4.1,48-8.5,70.3c-1.4,2.5-2.5,5.1-3.9,7.5c-4.5,7.7-7,15.5-6.4,24.9c1,14.4-4.9,27.3-12,39.6c-5.6,9.6-11.9,19-16.2,29.2
		c-7.8,18.8-5.9,37.3,6.5,53.8c8.6,11.4,21.8,15.8,33,11c4.2-1.8,7.4-5.8,11-8.8c2-1.6,3.9-3.6,6.2-4.3c0.7-0.2,3,3,3.8,5
		c5.5,13.2,7.6,26.8,4,41c-3,11.8-9.8,20.7-20.6,26.3c-25.7,13.5-52,13.3-78.8,3.5c-3.1-1.1-6.5-2-9.2-3.8
		c-13.8-9.7-29.9-8.6-45.5-10.5c-32.2-3.9-60.6-16.1-83.5-39.7c-0.6-0.6-1.3-1-2.1-1.7c-13,12.1-27.2,22.1-43.3,29.4
		c-18.9,8.6-38.7,13-59.4,13.8c-2.4,0.1-5,0.7-7.1,1.7c-20,10-41.1,16.3-63.5,17.9c-27.5,1.9-49.6-8.2-66-30.1
		c-11-14.6-13.2-31-6.2-48.2c0.9-2.3,2.2-4.5,3.6-6.5c3.2-4.3,6.9-4.5,10.4-0.6c2,2.2,3.8,4.7,5.4,7.1c9.1,13.5,21.9,17.7,37.4,15.1
		c24.2-4.1,35.9-16.1,40.9-43c2.2-11.9,3.1-24.1,4.1-36.2c0.7-8.1,0.7-16.3,0.6-24.5c-0.1-13.9,4-26.6,10.8-38.5
		c5.9-10.2,11.9-20.4,18-30.5c1.7-2.8,1.5-5.1-1-6.9c-9.2-6.4-13-15.7-16-26.1c-3.8-13.2-20.8-24.1-34.6-22.8
		c-3.1,0.3-5.8,2.9-8.9,3.9c-3.1,1-6.8,2.4-9.6,1.6c-1.7-0.5-3-4.7-3.3-7.4c-2.9-23.6,16.7-28.2,32.7-24.8
		c5.2,1.1,10.2,3.2,15.4,4.1c2.4,0.4,5.1-0.8,7.7-1.2c-1-2.5-1.4-5.7-3.2-7.2c-6.4-5.1-13.1-9.7-19.9-14.2c-5.2-3.4-7.9-8-8.5-13.9
		c-1.3-12.8-5.2-24.2-14.8-33.5c-2-1.9-3.1-6.6-2.2-9.1c1.8-4.8,4.4-10,8.2-13.1c14.8-12.2,31-22.4,48.6-30.2
		c4.3-1.9,8.4-4,12.7-5.9c7.5-3.5,12.8-9,15.2-16.9c2.6-8.4,7.9-13,16.6-14.3c17.7-2.6,35.5-5.3,53.2-8.4c3.5-0.6,7.2-2.3,10.1-4.4
		c6.1-4.6,11.5-10.1,17.5-14.9c4.8-3.9,10.3-5.7,16.8-4.5c4.7,0.9,9.6,1.1,14.4,1.6c16.1,1.9,31.1-1.1,45.1-9.5
		c4.1-2.5,8.4-4.6,12.6-6.9C691.7,0,692.3,0,693,0z M607.9,275.8c-0.5,3-0.7,6.1-1.7,8.9c-3.1,8.6-6.2,17.2-9.9,25.6
		c-14.8,33.5-11,66.9,2.1,99.5c13.2,32.9,42.1,49.3,76.8,45.2c1.7-0.2,3.2-2.2,4.9-3.3c-1.1-1.5-1.9-3.3-3.3-4.3
		c-6.9-4.6-14-9-21-13.5c-17-11.1-28.4-26.4-33.8-46c-2-7.2-4.6-14.2-7.1-21.3c-1.1-3-2.4-6-3.6-9c-1.2,2.1-1.1,4.2-1.8,5.9
		c-0.7,1.6-2.2,2.9-3.4,4.3c-1.6-1.3-3.9-2.3-4.5-4c-1.3-3.2-2.1-6.7-2.4-10.2c-3-31.5,4.8-59.8,25.9-83.8c8-9.1,17.2-17.2,26-25.6
		c3.7-3.6,7.7-7,12-9.8c1.7-1.2,4.6-0.6,6.9-0.9c-0.2,1.9,0.2,4.2-0.6,5.8c-4.6,8.1-9.9,15.8-14.1,24.1c-4.7,9.1-9,18.5-12.5,28.2
		c-2.9,8-3.5,16.7-2.2,26.8c2.3-2.7,4-4.3,5-6.2c2.8-5.1,5-10.5,7.9-15.6c5.6-9.8,11-19.7,17.2-29.1c8.2-12.3,17.5-24,25.8-36.2
		c7.6-11.1,14.4-22.8,21.7-34.1c1-1.5,3.5-2.8,5.2-2.7c1.3,0.1,3.1,2.4,3.6,4c1.2,4.1,1.7,8.5,2.6,12.7c0.5-0.1,1.1-0.2,1.6-0.2
		c8.4-23.1,10.9-46.4-2.7-68.4c-7.9-12.8-18.2-24.1-27.4-36.1c-1.1-1.4-2.7-2.6-3.5-4.2c-0.7-1.5-1.1-3.6-0.6-5.1
		c0.3-0.8,3.1-1.5,4.3-1c6.5,2.4,13.3,4.4,19.2,7.9c18.4,10.9,31.2,27.3,41.6,45.6c3.2,5.6,6.6,11.4,7.9,17.6
		c3.6,17.7-0.1,34.3-11.2,48.6c-11.5,14.7-23.8,28.7-35.7,43.1c-5.5,6.7-10.8,13.7-16.2,20.5c2.3,0.6,3.7,0.4,5-0.3
		c22.5-11.9,43.5-25.9,61.1-44.6c6.5-6.9,9.2-15.2,9.2-24.6c0.1-15.3-2.3-30.2-6.5-44.8c-4.6-16.1-10.2-32-23-43.6
		c-10.6-9.6-22.1-18.2-33.2-27.1c-14.4-11.6-15.2-15.1-8.9-32.4c1.6-4.4,3.1-9.8,2-14c-3.1-11.6-9.6-21.5-19-29.3
		c-3.3-2.8-7.3-3.7-11.2-1.7c-8.4,4.3-16.9,8.7-25,13.6c-7.2,4.4-11.6,11-11.2,19.9c0.2,4.7,2,7.2,5.7,8.5
		c-2.5-15.8,6.5-29.6,21.6-33c5-1.1,6.2-0.1,5.7,4.9c-0.1,1.3-0.6,2.6-0.7,3.9c-0.3,4.3-1.1,8.6-0.6,12.9c0.5,4.6,4,7.2,8.5,7.9
		c4.5,0.7,6.7-2.2,8.2-5.8c1.5-3.5,2.8-7.1,4.6-10.5c1.8-3.5,5.7-3.6,7.5-0.5c3.8,6.4,1.2,21.4-4.8,25.9
		c-10.9,8.2-22.8,11.4-36.1,6.3c-0.2,0.7-0.3,1.4-0.4,2c-1.4,8.1-7.3,10.4-13.7,5.2c-2.6-2.1-4.9-4.5-7.4-6.8
		c-10.1-9.3-21.6-16.4-35.2-18.8c-22.6-4-45.5-4.1-68.2-0.8c-6.8,1-13.4,3.4-19.9,5.7c-1.8,0.6-2.9,3.1-4.4,4.8
		c0.4,0.4,0.8,0.9,1.1,1.3c2.9-1,5.8-2,8.7-3.1c7.8-2.8,15.1-1.5,21.9,2.9c1.7,1.1,2.8,3,4.2,4.6c-0.3,0.5-0.6,1.1-1,1.6
		c-5-0.4-10-0.7-15.3-1.1c0,3.5,0,6.6,0,10c3.2,0.7,6.3,1.4,9.8,2.2c-1.6,2.9-3.1,5.4-4.8,8.6c3.3,0,5.8-0.2,8.3,0.1
		c1.4,0.1,2.7,1,4,1.5c-0.6,1.4-0.8,3.6-1.9,4.2c-6.9,3.9-13.9,7.5-21.1,10.8c-1,0.4-3.9-1.1-4.4-2.3c-1.6-4-4.5-6.3-8.4-7.1
		c-6-1.2-9.4-4.3-9.9-10.6c-0.2-3.4-2-4.3-5.5-2.7c-16.9,8.2-34,16.1-50.9,24.4c-4.9,2.4-9.3,5.8-13.7,9c-1.9,1.4-3.9,3.5-4.6,5.7
		c-0.7,2-0.5,5.2,0.7,6.6c0.9,1.2,4.3,1.2,6.2,0.6c2.3-0.7,4.1-2.7,6.3-3.9c1.2-0.6,3.5-1.4,3.9-0.9c1.1,1.2,2.2,3.3,1.9,4.7
		c-0.6,2.5-2,4.9-3.4,7.1c-5.3,8.4-5,24.5,0.9,32.5c1.8,2.4,4.3,4,6.5,0.9c5.4-7.6,13.5-10.1,21.9-11.6c11.6-2,22.7-5.1,32.7-11.4
		c4.2-2.7,8.2-2.1,11.8,1.3c1.6,1.5,3.4,2.7,4.8,4.4c10,11.7,21.7,21.7,34.3,30.4c4.1,2.8,4.7,6.3,3.7,10.8c-1,4.6-4,5.6-8,5.8
		c-2.5,0.1-4.9,0.7-7.4,0.9c-11.7,1-21.6,5.2-29.9,14c-9.5,9.9-20.8,17.8-33.6,23.1c-5.2,2.1-7,4.9-5.9,10.1
		c0.2,1.1,0.2,2.3,0.3,3.5c0.7,8,5.4,12.6,13.5,13.2c3.5,0.3,7-0.2,10.5,0.2c6.8,1,11.8-2,15.7-6.8c3-3.5,5.8-7.4,7.5-11.7
		c5.4-13.9,15.5-23.6,27.8-31.1c4-2.4,8.8-4.3,13.4-4.7c13.8-1.1,27.6-1.3,41.4-2c5.5-0.3,11-0.8,16.3-1.8c5.6-1.1,8.6-5.5,7.6-10.4
		c-1.1-5.1-5.4-4.6-9.2-4.7c-4.2-0.2-8.4,0.2-12.5-0.3c-5.1-0.6-6.3-2.5-4-7c2.5-5.1,5.2-10.1,8.7-14.5c2.3-3,5.6-5.9,9.1-7.1
		c11.9-3.8,24-6.9,36.1-10c1.6-0.4,4.5,0.4,5.1,1.5c0.9,1.7,0.9,4.4,0.3,6.4c-1.9,6.5-4.5,12.8-6.5,19.3c-1.3,4.1-1.9,8.4-2.9,12.6
		c-3.2,13.6-10.9,22.1-24.9,26.4c-32.1,9.7-62.8,22.8-92.1,39.3c-26.6,14.9-48.2,34.1-59.7,63.3c-8.1,20.6-11.6,42-12.1,63.9
		c-0.3,14.3,0.1,28.7-0.2,43c-0.6,29.2-14.9,47.9-42,54.6c-14.8,3.7-29.4,1.3-43.8-3.1c-2.2-0.7-4.4-1.1-7-1.8
		c0.4,1.1,0.5,1.7,0.7,2.1c0.7,1.1,1.5,2.2,2.3,3.3c9.6,13.6,23.6,18.1,39.4,19.1c13.2,0.9,25.5-1.3,37-7.8c1.4-0.8,3.3-3.5,2.9-4.1
		c-2.8-4.8,0.1-7.4,3.3-10.1c12.7-10.4,20.4-23.6,21.4-40.2c0.6-9.6,1.5-19.3,1.7-28.9c0.5-24.3,0.6-48.6,1.1-73
		c0.6-29.2,13.2-51,39.3-65.3c24.1-13.2,49.6-22.5,75.6-30.9c13.1-4.2,26.3-8.8,38.4-15.1c19.2-10,35.1-24.2,45.2-43.9
		c7.4-14.6,5.5-29.9-6.3-41.3c-6.1-5.9-13.7-10.4-21-15c-4.6-2.9-9.8-4.3-10.7-11c-0.4-2.6-3.1-5-5-7.3c-2.4-2.8-5.3-5.2-7.5-8.1
		c-1.4-1.9-2-4.3-2.9-6.5c2.3-0.9,4.7-2.6,7-2.7c15.4-0.5,30.5,2.4,44,9.4c20.8,10.8,34.4,27.5,36.7,51.8
		c1.7,18.1-6.2,32.4-18.3,44.7c-19.2,19.6-42.5,33.1-67.3,44.1c-18.2,8.1-36.8,15.6-54.9,23.9c-17.7,8.1-35.3,16.9-49.5,30.5
		c-5.2,4.9-10.2,11.1-12.5,17.6c-8.8,25.3-11.1,51.6-8.1,78.3c0.4,3.4,1.5,6.7,2.4,10.5c4.9-19.4,9.6-37.7,14.3-56.1
		c3.1-11.8,9.5-21.5,18.5-29.7C563,299.2,584.4,286.9,607.9,275.8z M783.2,276c-33.1,18.2-65,35.5-96.6,53.1c-3.5,2-6.9,5-9.1,8.4
		c-10.1,15.9-10.1,32.6-3.2,49.7c0.7,1.7,3,2.7,4.6,4c0.9-1.6,2.3-3.1,2.8-4.9c2.6-9.6,4.2-19.6,7.5-28.9c2-5.8,6.2-10.8,9.8-15.9
		c0.7-1,2.9-1,4.4-1.4c0.3,1.5,1.2,3.1,0.9,4.6c-0.7,4.1-2,8.1-2.9,12.1c-8.3,39.2-1,74.4,26.7,104.3c10.2,11,21.7,20.4,36.5,24.3
		c12.2,3.2,24.4,3.4,35.4-4.1c1.6-1.1,2.3-3.5,3.7-5.6c-1.8-0.5-2.1-0.7-2.4-0.7c-0.5,0-1,0-1.5,0.1c-19.6,2-35.3-4.7-46.3-21.3
		c-9.2-13.9-18.3-27.8-20-45.1c-0.2-2-1.5-3.8-2.3-5.6c-0.8,0.3-1,0.3-1.1,0.4c-0.5,0.5-0.9,0.9-1.3,1.4c-3.1,4.1-5.2,4.4-8.7,0.9
		c-1.4-1.4-2.8-3.1-3.3-4.9c-1.9-6.9-4.7-13.8-4.8-20.7c-0.5-24.1,11.6-42.2,28.9-57.8c11.9-10.6,23.2-21.9,34.3-33.3
		C778.5,285.7,780.2,281,783.2,276z M562,334.1c-10.9,9.4-18,19.8-18.9,33c-1,15.6-1,31.3-0.8,46.9c0.2,16.1-1.1,31.6-11.7,44.9
		c-0.8,1-1.4,3.4-0.9,3.9c1,1,2.9,1.5,4.3,1.3c8.2-1.2,15.6-4.5,22-9.9c1.3-1.1,2-3,3.8-5.8c-3,0.8-4.6,1.5-6.1,1.5
		c-1.7,0.1-3.7-0.1-5-1c-0.6-0.4-0.1-3.1,0.6-4.4c2.7-5.3,5.5-10.7,8.5-15.8c9.3-15.7,12.2-32.8,9.9-50.5
		c-1.3-10.5-4.3-20.8-4.4-31.5C563.3,343,562.6,339.3,562,334.1z M775.7,115.3c-1.2-10.1-3.2-19.2-9.1-26.4
		c-3.5-4.3-8.7-7.4-13.7-10.3c-1.8-1.1-5.8-0.8-7.3,0.5c-1.2,1.1-1,5-0.1,7.1c5.3,12.2,13.3,22.5,23.4,31.1c1.2,1.1,3.5,2.1,4.8,1.6
		C774.8,118.7,775.2,116.2,775.7,115.3z M425.6,216.3c4,1.2,6.6,2,9.3,2.7c7.2,1.8,14.3,3.9,21.6,5.2c5.2,0.9,10.5,0.7,15.8,0.7
		c0.9,0,2.5-1.6,2.4-2.3c-0.1-1.2-1.1-2.8-2.1-3.2c-6.5-2.5-13.3-4.2-19.6-7.1c-7.6-3.5-15-1.7-22.4-0.1
		C429.2,212.5,427.9,214.4,425.6,216.3z M510.6,195.6c-0.6-0.4-1.5-1.3-2.6-1.5c-3.4-0.6-10.6,4-10.7,7.4c-0.1,1.4,1.6,3.6,2.9,4.1
		C503.1,206.6,510.8,199.5,510.6,195.6z M465.8,180.8c0.1,0.7-0.3,2.4,0.4,3.2c1.4,1.6,3.3,2.7,5,4c0.9-1.7,2.2-3.3,2.5-5
		c0.3-1.9,0.1-4.1-0.8-5.8c-0.7-1.4-2.6-2.3-4-3.4c-1,1.3-2.1,2.6-2.9,4C465.6,178.4,465.9,179.4,465.8,180.8z M496.9,223
		c-0.6-1.7-0.8-2.9-1.3-3.9c-1.4-3.1-3.7-5.5-7.1-4.4c-0.9,0.3-0.5,4.4-0.6,6.8c0,0.8,0.3,2,0.8,2.2c2,0.8,4.1,1.6,6.3,1.8
		C495.6,225.5,496.4,223.7,496.9,223z M619.9,40.1c3-3.1,5-5.2,6.9-7.3c-1.2-0.8-2.4-2.3-3.7-2.3c-3.1-0.1-6.3,0.6-6.6,4.5
		C616.5,36.1,618.1,37.5,619.9,40.1z"/>
	<path d="M0,795c0.6-3.9,1.7-7.8,1.7-11.7c0-5.1,2.4-5.9,6.8-5.9c23.1,0.3,46.3,0.4,69.4,0.5c5.7,0,11.3-0.1,17-0.5
		c4.9-0.3,7,1.8,7,6.6c0,3,0.4,6,0.2,9c-0.1,1.8-0.8,3.5-1.2,5.2c-0.5,0-1.1,0-1.6,0c-0.4-1.4-1.1-2.9-1.2-4.4c-0.5-4-2.5-6.8-6.5-7
		c-10.1-0.4-20.3-0.6-30.4-0.4c-1,0-2.8,3.3-2.9,5.1c-0.2,13-0.1,26-0.1,39c0,14.3,0.1,28.7,0,43c-0.1,6.8,1.4,11.6,9.4,12.9
		c1.2,0.2,2.2,1.9,3.3,2.9c-1.4,0.6-2.8,1.6-4.2,1.6c-9.7,0.1-19.3,0.1-29,0c-1.6,0-3.1-0.7-4.7-1.1c0-0.5-0.1-1-0.1-1.5
		c2-1,3.9-2.1,5.9-2.9c4.4-1.7,6.5-4.6,6.5-9.5c-0.1-28.1-0.1-56.3,0-84.4c0-3.7-1-5.5-5.1-5.3c-7.7,0.3-15.3,0-23,0.1
		c-7.5,0.1-8.9,1.4-11.8,8.4C4.4,797,4.6,801,0,800C0,798.3,0,796.7,0,795z"/>
	<path d="M1280,813c-0.8,2.1-1.6,4.3-2.5,6.4c-5.9,13.5-20.3,20.6-35,17.4c-13.6-3-23.6-16.4-22.9-30.6
		c0.7-14.9,11.2-26.5,26.2-28.8c13.8-2.1,27.8,6.5,32.6,20c0.5,1.6,1.1,3.1,1.7,4.7C1280,805.7,1280,809.3,1280,813z M1275.6,807.1
		c-0.1-14.4-12-26.1-26.1-26c-14.4,0.1-25.8,12.1-25.6,26.9c0.2,14.4,12.1,26,26.2,25.8C1264.4,833.5,1275.7,821.6,1275.6,807.1z"/>
	<path d="M356.4,500.5c2.1,1.5,4.4,2.7,6.3,4.4c10.3,9.6,22,16.6,35.2,21.3c9.2,3.2,10.2,6.7,4.3,14.5c-1,1.3-2.1,2.6-3,4
		c-2,3-3.1,6,0,9c3,3,6.6,4.6,10.3,2c3.4-2.5,6.6-5.6,9.2-9c3.2-4.3,6.5-4.7,10.7-2.1c2.5,1.6,5.2,3,7.6,4.7
		c8.9,6.1,9.1,6.9,4.4,16.9c-0.8,1.8-1.7,3.6-2.7,5.3c-4.5,7.8-4.9,7.9-13.8,6.6c-5-0.7-10.3-1.4-13.2,4.1
		c-2.9,5.5-2.6,10.9,1.4,15.9c8.7,10.8,20.3,12.4,33,10.4c2.5-0.4,4.9-1.1,7.2-1.9c12.4-4.5,17.9-14.1,14.2-26.8
		c-2.2-7.6-5.8-14.8-9.4-21.9c-2.1-4.3-2.7-8.2-0.3-12.3c2.9-4.8,5.9-9.6,9.2-14.2c2.2-3.1,5.9-3.8,8.9-1.7c5.6,3.8,11,8,15.9,12.5
		c1.4,1.3,1.7,4.6,1.3,6.8c-1.1,6.7-3,13.3-4.1,20c-1.4,8.8,2,15.6,9.1,21.2c18.3,14.1,53.5,15.3,72.3,1.9c9.8-7,11.7-21.5,4-30.9
		c-4.7-5.8-14.8-7.8-22.5-3.8c-4.5,2.4-8.5,5.8-12.5,9c-3.8,3.1-7.4,3.3-10.6-0.1c-4.9-5.3-9.7-10.9-13.9-16.8
		c-1.2-1.6-1.1-5.6,0.1-7.2c4.4-6.2,9.5-11.9,14.5-17.7c2.3-2.6,4.8-2.2,7.5-0.2c5,3.6,10,7.3,15.2,10.5c5.1,3.2,10.8,3,16.4,1.3
		c4.8-1.4,7.4-4.8,8.5-9.6c1-4.5-1.1-7.8-4.4-10.4c-4.1-3.1-8.4-6-12.5-9.2c-4.4-3.5-4.4-5.4-0.1-9c11.7-9.6,23.4-19.2,35.1-28.9
		c3.3-2.7,5.8-2.7,9,0.2c11.5,10.1,23.1,20,34.8,30c4.7,4.1,4.7,5.2-0.5,9c-3.8,2.8-7.7,5.3-11.1,8.4c-3.8,3.3-6.1,7.6-4.6,12.9
		c1.5,5.5,6.1,7.2,11,8c5.9,1.1,11.6,0.5,16.7-3.1c5-3.5,10.2-7,15-10.8c3.3-2.6,6.2-2.6,8.7,0.5c4.8,6,9.5,12,13.8,18.3
		c1,1.4,0.9,4.8-0.2,6.3c-4.2,5.8-8.9,11.1-13.6,16.6c-2.4,2.8-5.2,3.1-8.5,1.2c-4.3-2.5-8.8-4.7-13.3-6.9
		c-8.4-4.2-15.4-1.3-21.8,4.5c-6.4,5.8-6.6,12.7-3.8,20.1c3.1,8.3,9.7,13,17.8,15.5c14.2,4.4,28.7,4.7,42.7-0.2
		c5.6-2,10.9-5.7,15.3-9.8c6-5.5,8.1-12.7,5.6-21c-1.8-6-3.3-12.2-4.2-18.5c-0.4-2.5,0.4-6.1,2-7.7c6.1-5.6,12.7-10.6,19.3-15.7
		c2.5-1.9,4.8-1.2,6.2,1.5c3.9,7.5,7.9,15,11.2,22.7c0.8,1.8-0.1,4.9-1.1,6.9c-2.8,5.5-6,10.7-9.1,16.1c-2.6,4.5-2.7,9-1.3,14
		c5.1,17.7,19.3,27.3,36.4,24.7c12.2-1.8,25.7-17.9,18.7-31.4c-3.8-7.2-7.3-9-14.8-5.9c-8.2,3.3-9.4,2.9-13.3-5.2
		c-6-12.3-5.2-15.6,5.5-24c9.5-7.4,9.5-7.4,17.5,1.6c1.3,1.5,2.7,3,4.1,4.4c4.1,4.1,6.9,4.6,10.9,1.7c4.9-3.6,6.1-7.7,3.8-12.5
		c-5.7-11.4-5.4-11,5.7-16.9c7.6-4,14.4-9.4,21.5-14.4c3.9-2.7,7.5-5.9,11.2-8.9c0.4,0.2,0.7,0.5,1.1,0.7c-0.3,1.3-0.4,2.7-0.8,4
		c-11.6,38.5-25.7,75.9-42.6,112.4c-0.9,2-1.9,4.5-1.5,6.5c1.9,9,0.7,17.5-3,25.8c-6.9,15.4-10.5,31.6-11.8,48.3
		c-0.4,5.4,0.1,11,0.6,16.4c0.7,7.6-2.9,12.1-10.7,12.2c-23.2,0.3-46.3,0.7-69.5,0.7c-77.8,0.1-155.6,0.1-233.5,0
		c-13.5,0-27-0.3-40.5-0.5c-7.6-0.1-11.5-3.7-12.1-11.4c-0.2-2.8-0.3-5.8,0.3-8.5c4.5-17.7,0.7-34.8-6.6-50.5
		c-6.3-13.6-7.5-26.6-4.3-40.7c0.5-2.1-0.3-4.8-1.2-6.9c-15.2-34.2-30.5-68.4-45.7-102.6c-0.8-1.9-0.9-4.1-1.3-6.1
		C355.5,501.1,356,500.8,356.4,500.5z M761.6,648.6c-7.4-2.4-323.3-1.9-328.4,0.6c9.8,5.1,8.5,13.9,8.4,22.4c0,1.5,0,3,0,4.5
		c0.1,8,1.2,16.3-7.9,21.2c6,2.6,321.8,2.5,326.1,0.3c-7.4-8.9-7.4-8.9-7.4-21.8c0-2.3,0.1-4.7,0-7
		C751.8,660.7,752.2,653.1,761.6,648.6z M769.2,633.4c0-0.8,0-1.6,0-2.3c-2.3-0.7-4.5-2.1-6.8-2.1c-110.8-0.1-221.6-0.1-332.4,0
		c-2.2,0-4.5,1.4-6.7,2.2c0,0.8,0.1,1.6,0.1,2.3c2.3,0.7,4.7,2,7,2.1c110.6,0.1,221.3,0.1,331.9,0
		C764.6,635.6,766.9,634.1,769.2,633.4z M431.3,709.5c0,0.9,0,1.8,0,2.7c2.6,0.7,5.2,1.9,7.8,1.9c82.6,0.1,165.3,0.1,247.9,0.1
		c22.8,0,45.7,0.1,68.5-0.1c2.4,0,4.8-1.3,7.2-2.1c0-0.9-0.1-1.8-0.1-2.7c-2.6-0.6-5.3-1.8-7.9-1.8c-70.8-0.1-141.6-0.1-212.4-0.1
		c-34.3,0-68.6,0-103,0.1C436.5,707.7,433.9,708.9,431.3,709.5z"/>
	<path d="M288.9,779.3c1.6-0.5,3.1-1.5,4.7-1.5c12-0.2,24-0.5,35.9-0.3c5.5,0.1,11,0.4,16.3,1.6c24.9,5.6,25.8,32.6,13.4,45.3
		c-3.4,3.5-7.7,6.2-12,9.6c3.2,4.7,6.7,9.9,10.2,15.1c4.8,7,9.6,14,14.3,21c5.4,8.1,10.8,16,21.4,18.3c-9.3,3.9-17.9,4-25.1-3.3
		c-3.8-3.9-7.2-8.3-10.2-12.9c-6.1-9.3-12.2-18.7-17.7-28.3c-2.9-5-6.7-6.8-12.2-6.7c-14.8,0.2-12-1-12.2,12.2
		c-0.1,8.3-0.1,16.7,0,25c0.1,7.5,2.2,9.9,9.5,11.8c2.3,0.6,4.5,1.4,7.2,2.3c-3.1,2.8-37.6,3.2-41.6,0.7c1.7-1.1,3-2.3,4.5-2.9
		c5-1.9,7.4-5.6,7.4-10.8c0-27.3,0.1-54.6,0-81.9c0-7-2.3-9.3-9.1-11.1c-1.5-0.4-3-1-4.6-1.5C289,780.4,288.9,779.8,288.9,779.3z
		 M316,808c0,2.5,0,5,0,7.5c0,17.7,0,17.7,18.1,16.3c8.4-0.7,15.6-3.5,19.5-11.7c7.1-15.1-1-32.2-17.2-35.8c-4.6-1-9.5-1-14.3-1.3
		c-4.2-0.2-6.1,1.9-6,6.1C316.1,795.4,316,801.7,316,808z"/>
	<path d="M732.8,860.6c1,13.9-2.9,21-13.8,24.9c-18.1,6.5-36.8,8.4-55.4,3c-25.5-7.4-39.9-30.8-37.5-58.8
		c2.3-26.1,20-47.2,44.9-52.3c17-3.5,33.4-1.2,48.8,7.3c3.3,1.8,7.3,2.5,12.4,4.2c0.5,6.8,1,15.3,1.6,23.8c-0.7,0.2-1.3,0.3-2,0.5
		c-2.5-3.8-5.1-7.6-7.5-11.5c-15.9-25.5-44-24.3-61.6-16.1c-9.5,4.4-15.9,12.1-19.3,21.9c-6.5,18.8-5.7,37.5,3.7,55.1
		c16.7,31.4,63.3,32.4,82.1,2C730.1,863.6,731.1,862.6,732.8,860.6z"/>
	<path d="M181.5,889.9c-9.1,0-18.3,0-27.6,0c0.2-1.2,0.2-1.7,0.4-1.7c6.8-2,7.8-7.1,7.4-13.3c-0.4-6.8-0.1-13.7-0.1-20.5
		c0-3.7-0.9-5.7-5.4-5.5c-11.7,0.3-23.3,0.3-35,0c-4.6-0.1-5.7,1.7-5.6,5.8c0.2,7.5,0.1,15,0.1,22.5c0,7.6,0.1,7.6,7.5,10.1
		c1.2,0.4,2.2,1.1,3.1,2.6c-9.7,0-19.4,0-29.3,0c0.3-1.1,0.4-1.7,0.5-1.7c7.7-2,8.8-7.5,8.6-14.6c-0.4-17.7-0.1-35.3-0.1-53
		c0-8.1-0.1-8.3-7.9-10.9c-0.6-0.2-1.1-0.6-1.6-1.9c9,0,17.9,0,27.7,0c-8.6,5.6-8.6,5.6-8.6,15.9c0,5.3,0.1,10.7,0,16
		c-0.1,3.2,0.9,5,4.5,5c12.3-0.1,24.7-0.1,37,0c3.2,0,4.3-1.5,4.3-4.1c0.1-8,0.6-16.1-0.3-23.9c-0.4-3.1-4.4-5.7-6.8-8.7
		c1.3-1.4,20.2-1.8,24.2,0.5c-0.1,0.3-0.1,0.9-0.2,0.9c-6.5,1.6-7.5,6.2-7.4,12.1c0.3,17.8,0.1,35.6,0.1,53.5c0,9.3,0,9.3,8.5,12.7
		c0.7,0.3,1.4,0.8,2,1.2C181.6,889.2,181.6,889.6,181.5,889.9z"/>
	<path d="M852.7,890.1c-9.8,0-19.6,0-29.6,0c0.1-0.9,0.1-1.4,0.3-1.5c7.5-2.8,8.2-8.7,8-15.7c-0.4-16-0.3-32,0-47.9
		c0.1-7.5,0.3-14.5-10-16.1c1-0.5,2-1.5,3-1.5c11.6,0,23.3-0.4,34.9,0.4c10.6,0.7,17,6.3,18.8,14.3c2.1,9.9-1.8,18.5-10.9,24.1
		c-1,0.6-1.9,1.2-3.3,2c7.9,11.3,15.4,22.7,23.6,33.5c2.3,3.1,6.5,4.9,9.5,7.1c-5.4,2.9-11.9,2.4-17-2.5c-2.8-2.7-5.2-6-7.5-9.3
		c-4.8-7.2-9.2-14.6-14.2-21.7c-1.4-1.9-3.9-3.8-6.2-4.2c-10.7-1.6-11.1-1.1-11.1,9.7c0,5.5,0.2,11-0.1,16.5
		c-0.3,5.4,1.9,8.5,7.2,9.6c1.7,0.3,3.2,1.1,4.8,1.7C852.8,889.2,852.8,889.7,852.7,890.1z M840.9,829.1c0,2,0,4,0,6
		c0.3,12.6-2.6,12,12,11.9c9.9,0,15.9-4.4,17.2-12.5c1.7-10.7-2.4-18.8-11.9-21.8c-3.9-1.2-8.1-1.3-12.2-1.7c-3.6-0.4-5.1,1.6-5,5.1
		C841,820.5,840.9,824.8,840.9,829.1z"/>
	<path d="M1188.8,873.7c0-18.3,0.2-35.2-0.1-52.2c-0.1-6.4-2.7-9.1-8.8-11.1c-1.4-0.5-2.7-1.1-4.1-1.6c0.1-0.5,0.2-0.9,0.3-1.4
		c7.9,0,15.9,0,24,0c0,0.4,0.1,1.2-0.1,1.3c-6.1,2.5-6.4,7.5-6.4,13.1c0.2,20.8,0.1,41.6,0,62.5c0,2.1-0.3,4.1-0.5,6.2
		c-0.5,0.2-1,0.5-1.4,0.7c-18.8-21-37.5-42.1-56.3-63.1c-0.5,0.1-0.9,0.2-1.4,0.3c0,1.5,0,3,0,4.5c0,14.5,0,29,0,43.5
		c0,8.5,0.2,8.8,8.5,11.5c0.6,0.2,1.1,0.6,1.6,0.9c-2.4,2.6-21.4,3-25.2,0.7c0.1-0.3,0.1-0.8,0.3-0.9c8.3-2.4,9.8-8.7,9.8-16.3
		c-0.1-14.7,0.1-29.3,0.1-44c0-10.6-2.5-14.2-12.3-18.4c-0.5-0.2-1-0.7-1.5-1.2c4.4-3.2,12.4-2.4,16.1,1.7
		c11.6,12.8,23.2,25.7,34.8,38.6c6.5,7.2,12.9,14.4,19.4,21.5C1186.3,871.4,1187.1,872.1,1188.8,873.7z"/>
	<path d="M1070.5,891.3c-25.1,0-41.5-17.1-41.5-43c0.1-24.2,18.8-42.4,43.6-42.3c24.7,0,42.7,17.7,42.7,41.8
		C1115.2,874,1097.4,891.3,1070.5,891.3z M1106.5,857.8c-0.1-16.5-3.3-26.5-10.5-34.9c-9.4-10.9-21.4-15.3-35.4-11.7
		c-12.8,3.3-19.8,12.7-22.1,25.2c-2.8,14.9,0.5,28.6,10.8,40c8.5,9.5,19.4,13.4,32,11C1096.7,884.4,1106.5,870.5,1106.5,857.8z"/>
	<path d="M245.9,874.4c1.7,5.9-5,15.9-11.7,16.1c-15,0.5-29.9,0.2-44.9,0.2c-0.7,0-1.4-0.7-2.7-1.3c1.5-1,2.5-1.8,3.6-2.3
		c3.4-1.3,4.8-3.8,4.8-7.4c0-20.5,0-41,0-61.4c0-3.9-1.7-6.6-5.6-7.9c-1.3-0.4-2.4-1.4-3.2-3.2c1.6-0.1,3.1-0.3,4.7-0.3
		c15.2,0,30.3,0.1,45.5-0.1c3.9-0.1,5.1,1.5,4.7,5c-0.4,3.8-0.8,7.6-1.1,11.4c-0.5,0-1.1,0-1.6,0.1c-0.4-0.9-1.1-1.8-1.3-2.8
		c-1-6.4-2.3-8.1-8.7-8.5c-6.3-0.4-12.6-0.2-19-0.3c-3.1,0-4.5,1.4-4.5,4.6c-0.2,8.8-0.6,17.6-0.6,26.4c0,0.9,2,2.6,3.1,2.7
		c5.3,0.3,10.6,0.2,16,0c5.5-0.1,7.9-4.1,9.4-8.9c0.4,0.1,0.8,0.2,1.2,0.4c0,7.9,0,15.9,0,23.8c-0.3,0.1-0.7,0.1-1,0.2
		c-0.4-0.5-0.9-0.9-1-1.4c-3.1-8.7-3.1-8.7-12.2-8.7c-4,0-8-0.3-12,0.2c-1.3,0.1-3.4,2.1-3.4,3.3c-0.3,8.6-0.1,17.3-0.2,26
		c0,4.1,2.6,5.5,6.2,5.6c12.9,0.3,25.4-1,34.8-11.3C245.2,874.4,245.6,874.5,245.9,874.4z"/>
	<path d="M778.7,804.7c1.6,3.4,3,5.8,4,8.4c8.6,21.5,17.2,42.9,25.6,64.4c2.5,6.4,5.9,11.1,14.1,10.8c-0.3,0.6-0.5,1.2-0.8,1.7
		c-9.1,0-18.2,0-27.4,0c0.1-0.6,0-1.1,0.1-1.2c9.1-4.2,6.5-5.4,4.1-12.7c-1.6-4.6-3.6-9-5.2-13.5c-1.1-3-3-4.6-6.3-4.5
		c-8.3,0.1-16.7-0.2-25,0.2c-2.1,0.1-4.7,2.1-5.9,3.9c-2.2,3.3-3.4,7.2-5.1,10.8c-4.3,9.6-3.8,11.2,5.3,15.5c-2.8,2.5-18,3.2-23,0.6
		c9.9-3.2,11-12.4,14.6-19.8c9.4-19.3,18.3-38.8,27.4-58.3C776.1,809.2,777.2,807.4,778.7,804.7z M776.8,821.7c-0.6,0-1.2,0-1.9,0
		c-4.4,9.3-8.8,18.5-12.9,27.9c-0.2,0.5,2.1,3,3.4,3.1c4.3,0.4,8.6,0.2,13,0.2c3.4,0,6.7,0,11,0
		C784.9,841.5,780.8,831.6,776.8,821.7z"/>
	<path d="M557.6,813.3c-10.7,0-20.8-0.5-30.8,0.3c-2.8,0.2-5.5,4.1-7.9,6.6c-1.1,1.2-1.4,3.2-2.1,4.9c-0.5,0-1.1,0-1.6,0
		c-0.1-1.6-0.5-3.3-0.3-4.9c2.1-14.7-0.6-12,13.2-12.2c11.7-0.2,23.3-0.1,35,0c2,0,4.1,0.7,6.1,1.1c-0.6,2.1-0.8,4.5-1.9,6.4
		c-12,20-24.2,39.8-36.3,59.8c-1.7,2.8-3.1,5.7-5.1,9.4c3.4,0.2,5.6,0.5,7.8,0.5c5.7,0.1,11.3-0.1,17,0.1c7.2,0.2,14-0.6,19.2-6.3
		c0.6-0.6,1.7-0.7,2.6-1.1c0.1,7.5-4.3,12.5-10.9,12.5c-14,0-28,0.1-42-0.1c-2,0-4-0.9-6-1.4c0.7-1.8,1-3.8,2-5.4
		c13-21.7,26.1-43.4,39.1-65.1C555.8,816.8,556.6,815.2,557.6,813.3z"/>
	<path d="M1024.2,821.9c-3.2-8.1-3.2-8.1-12.7-8.1c-4.8,0-9.7,0.1-14.5,0c-2.7-0.1-3.9,0.9-3.9,3.7c0.1,20.7,0,41.3,0.1,62
		c0,3.7,1.7,6.3,5.4,7.4c1.3,0.4,2.6,1,3.9,1.6c-0.1,0.5-0.1,0.9-0.2,1.4c-9.1,0-18.2,0-28.2,0c1.1-1.3,1.4-2.1,1.9-2.2
		c7.4-1.8,8.3-7.1,8.1-13.7c-0.4-17.2-0.1-34.3-0.2-51.5c0-2.8-0.5-5.5-0.8-8.6c-7.8,0-15.2-0.3-22.4,0.2c-2,0.2-4.1,2.7-5.7,4.5
		c-1.3,1.5-1.9,3.5-2.9,5.3c-0.5-0.2-1.1-0.4-1.6-0.5c0.8-4.6,1.4-9.3,2.5-13.7c0.3-1.2,2.5-2.6,3.9-2.6c21.5-0.2,43-0.1,64.5-0.2
		c3.2,0,4.6,1.2,4.5,4.4c-0.1,3.6,0,7.1,0,10.7C1025.4,822,1024.8,821.9,1024.2,821.9z"/>
	<path d="M464.2,813.9c-7.8,0-14.8-0.4-21.7,0.2c-2.2,0.2-4.5,2.6-6.3,4.4c-1.4,1.4-1.9,3.6-2.9,5.4c-0.6-0.2-1.1-0.3-1.7-0.5
		c0.8-4.7,1.5-9.5,2.6-14.1c0.3-1,2.4-2.3,3.6-2.3c21.6-0.1,43.3-0.1,64.9-0.1c2.6,0,4.2,0.9,4.2,3.7c0,3.8,0,7.6,0,11.7
		c-1.3-0.4-1.6-0.4-1.6-0.5c-1.6-8.4-7.8-8.4-14.3-8c-4.3,0.2-8.7,0.2-13,0.1c-2.7-0.1-3.9,0.8-3.9,3.7c0.1,20.6,0,41.3,0.1,61.9
		c0,4,1.8,6.6,5.8,7.6c1.3,0.3,2.4,1.1,3.7,1.7c-0.1,0.4-0.2,0.9-0.3,1.3c-9.1,0-18.1,0-28.4,0c1.4-1.5,1.8-2.4,2.4-2.5
		c6.6-1.7,8-6.1,7.8-12.4c-0.4-17.5-0.1-35-0.2-52.4C465,819.9,464.5,817.1,464.2,813.9z"/>
	<path d="M962.5,874.4c1.2,6.5-5.3,15.9-12,16.1c-15.1,0.4-30.3,0.1-45.4,0c-0.4,0-0.8-0.5-1.2-0.8c0.1-0.4,0.1-0.9,0.2-0.9
		c7.7-2.3,7.7-8.4,7.7-14.8c-0.1-17.3-0.3-34.6,0.1-51.9c0.1-6.4-1.2-10.8-8-12.1c-0.6-0.1-1-0.6-1.6-1c3-2.5,22.7-2.8,28.2,0.3
		c-1.2,0.3-1.9,0.4-2.5,0.6c-5.7,1.3-6.9,5.4-6.8,10.6c0.1,15,0.1,30,0,44.9c0,4.1-0.3,8.3-0.6,12.4c-0.4,5.9,1.2,7.9,7.3,8.1
		c12.6,0.2,24.6-1.4,33.8-11.4C961.7,874.4,962.2,874.5,962.5,874.4z"/>
	<path d="M424.7,890.2c-9.2-0.3-18.4,0.5-28.2-1.6c11.1-2.4,9.3-10.6,9.4-17.8c0.1-14.8,0-29.6,0-44.4c0-7.6,1.5-16-10.5-17.3
		c0.4-0.4,0.7-0.9,1.1-1.3c8.7,0,17.5,0,26.4,0c-0.2,0.8-0.2,1.3-0.3,1.4c-6.8,1.5-7.7,6.3-7.6,12.4c0.3,18.3,0.1,36.6,0.1,54.9
		c0,8.2,0,8.2,7.6,11c0.8,0.3,1.5,0.9,2.3,1.4C424.9,889.3,424.8,889.7,424.7,890.2z"/>
	<path d="M611,844c3.1,7.5,2.5,8.9-4.5,11.4c-9.2,3.3-18.4,6.6-27.6,9.9c-3.6-5.4-2.7-8.6,2.9-10.6C591.4,851.2,601,847.7,611,844z"
		/>
	<path d="M575.6,183.7c-7.3-0.1-12.2-2-16.3-6.9c-6.6-7.9-13.7-15.4-20.7-22.9c-1-1.1-2.2-2.4-3.5-2.7c-5.8-1.3-7.8-5.5-9.6-10.6
		c-3-8.4-9.2-14.5-15.6-20.4c-1.7-1.6-3.8-4.8-3.2-6.4c1.3-3.4,5.1-3.3,8.2-2.2c12.9,4.4,21.8,13.6,29.2,24.7c1.4,2,3,3.9,4.9,5.5
		C561.9,152.7,570,166.7,575.6,183.7z"/>
	<path d="M473.2,111c-0.1,5.6-6.4,15.6-10.4,16.4c-1.8,0.4-4.9-0.6-5.8-2.1c-1.3-2-2.5-5.8-1.5-7.5c3.1-5.1,8.1-8.3,14.2-8.9
		C470.9,108.9,472.4,110.5,473.2,111z"/>
	<path d="M1255.5,808.2c7.3,3.2,6.8,9.1,6.7,16.7c-2.2-1.8-4.4-2.9-4.4-3.9c0.4-9.3-3.6-11.2-14.5-9.8c0,4,0,8.1,0,12.4
		c-2.3,0-4,0-5.9,0c0-11.1,0-22,0-32.9c5.6,0,10.8-0.2,16.1,0.1c4.7,0.2,8.5,2.2,9.3,7.3C1263.7,803.2,1261.2,806.4,1255.5,808.2z
		 M1243.2,806.7c3.7-0.2,7,0.2,9.7-0.8c2-0.7,4.6-3.4,4.6-5.3c0-1.8-2.6-4.6-4.6-5.3c-2.8-0.9-6.1-0.2-9.4-0.2
		c-0.1,0.8-0.3,1.5-0.3,2.1C1243.2,800.1,1243.2,802.9,1243.2,806.7z"/>
	<path d="M498.5,695.7c-6.5,0-13,0.1-19.5,0c-9.7-0.1-14.7-5.1-14.8-14.9c-0.1-5-0.2-10,0-15c0.3-8.3,5.3-13.4,13.5-13.6
		c14.1-0.2,28.3-0.2,42.5,0c8.5,0.1,13.5,5.5,13.7,13.9c0.1,5.2,0.1,10.3,0,15.5c-0.1,8.8-5.2,13.9-14,14.1
		C512.8,695.9,505.7,695.7,498.5,695.7z M498.9,685.8c6.2,0,11.9-5.4,12-11.7c0.1-6.2-5.3-11.9-11.6-12.1
		c-6.4-0.2-12.2,5.5-12.2,11.9C487.1,680.3,492.7,685.8,498.9,685.8z"/>
	<path d="M597.5,695.7c-6.8,0-13.6,0.1-20.5,0c-9.3-0.1-14.2-5-14.3-14.2c-0.1-5.3-0.1-10.7,0-16c0.2-7.9,4.9-13.1,12.7-13.2
		c14.6-0.3,29.3-0.3,43.9,0c7.6,0.1,12.6,5.5,12.9,13.2c0.2,5.5,0.2,11,0,16.5c-0.2,8.6-5.1,13.5-13.8,13.7
		C611.5,695.9,604.5,695.7,597.5,695.7z M597.4,661.9c-6.5,0-11.8,5.1-12,11.5c-0.1,6.5,5.4,12.1,12,12c6.4-0.1,11.6-5.3,11.6-11.8
		C609.1,667.1,603.9,661.9,597.4,661.9z"/>
	<path d="M692.5,696.2c-7,0-14,0.1-21,0c-8.4-0.1-13.4-5.1-13.5-13.4c-0.1-5.7-0.1-11.3,0-17c0.2-7.4,5.1-12.7,12.6-12.8
		c14.8-0.2,29.6-0.2,44.5,0c6.9,0.1,11.8,4.4,12.3,11.3c0.5,6.8,0.5,13.7,0,20.4c-0.5,6.8-5.5,11-12.3,11.4c-0.3,0-0.7,0-1,0
		C706.8,696.2,699.6,696.2,692.5,696.2z M705,673.7c0-6.5-5.2-11.7-11.7-11.7c-6.4-0.1-11.9,5.1-12,11.5c-0.2,6.5,5.5,12.1,12.1,12
		C699.9,685.3,705.1,680.2,705,673.7z"/>
	<path d="M461.9,673.4c0.1,4.7-3.6,8.6-8.4,8.6c-4.6,0.1-8.3-3.3-8.5-7.9c-0.3-4.7,3.4-8.7,8.1-9
		C457.7,664.9,461.8,668.8,461.9,673.4z"/>
	<path d="M653.8,673.4c-0.1,4.6-4.2,8.5-8.8,8.4c-4.7-0.1-8.3-4.1-8.1-8.8c0.2-4.6,3.7-8,8.4-8C650,664.9,653.9,668.8,653.8,673.4z"
		/>
	<path d="M731.8,673.8c-0.1-4.8,3.7-8.6,8.3-8.6c4.6,0,8.6,4.1,8.5,8.6c-0.1,4.4-3.7,8.1-8.3,8.2
		C735.6,682.1,731.9,678.6,731.8,673.8z"/>
	<path d="M556.4,673.7c0,4.6-3.5,8.2-8.1,8.4c-4.8,0.1-8.6-3.5-8.6-8.4c0-4.6,3.6-8.4,8.1-8.5C552.3,665,556.3,669,556.4,673.7z"/>
</g>
</svg>
