<?xml version="1.0" encoding="utf-8"?>
<!-- Generator: Adobe Illustrator 18.1.1, SVG Export Plug-In . SVG Version: 6.00 Build 0)  -->
<svg version="1.1" id="Layer_1" xmlns="http://www.w3.org/2000/svg" xmlns:xlink="http://www.w3.org/1999/xlink" x="0px" y="0px"
	 viewBox="0 0 594.1 64" enable-background="new 0 0 594.1 64" xml:space="preserve">
<g>
	<defs>
		<rect id="SVGID_1_" y="0" width="594.1" height="64"/>
	</defs>
	<clipPath id="SVGID_2_">
		<use xlink:href="#SVGID_1_"  overflow="visible"/>
	</clipPath>
	<path clip-path="url(#SVGID_2_)" fill="#FFFFFF" d="M375.4,41.3c2.9-0.9,10.2-4.3,10.2-14.2c0-6-2.5-10.1-5.7-12.8
		c-4.5-3.7-9.2-3.7-16.1-3.7h-12.3c-4.1,0-4.2,3.3-4.2,3.3h0v48.5h5.6c3.9-0.1,4-3.3,4-3.3V43.2h8.7l10.3,19.2H387L375.4,41.3z
		 M366.7,35c-1.8,0.1-3.1,0.1-6.4,0.1h-3.4V19h4.5c5.7,0,8.2,0.1,10.3,1.1c4,2.1,4.1,5.9,4.1,7C375.8,34.6,368.8,34.9,366.7,35"/>
	<path clip-path="url(#SVGID_2_)" fill="#FFFFFF" d="M80.4,18.1c-8.9,0-14.8,7.2-14.8,18c0,11.7,6.5,18.6,15.1,18.6
		c6.4,0,14.7-4.7,15-17.2C95.8,27.4,90.5,18.1,80.4,18.1 M80.3,63.7c-6.5,0-12.6-1.8-17.8-7.9c-5.1-5.9-6.9-12.7-6.9-19.2
		c0-15.8,10.7-27.3,24.9-27.3c12.8,0,24.9,9.5,24.8,27.2C105.2,51.3,96.2,63.7,80.3,63.7"/>
	<path clip-path="url(#SVGID_2_)" fill="#FFFFFF" d="M441.7,59.1v-5.4h-27.3V39.8h24.9v-8.3h-24.9V19.3h27.3v-5.3
		c0,0-0.1-3.3-4.2-3.3h-28.5c-3.5,0-4.1,2.5-4.1,3.2v48.7h32.6C441.6,62.4,441.7,59.1,441.7,59.1"/>
	<path clip-path="url(#SVGID_2_)" fill="#FFFFFF" d="M494.9,62.4h7.2l-17.7-51.8h-7.7c-3.6,0-4.5,3.6-4.5,3.6h0l-16.3,48.2h7.2
		c2.8,0,3.9-2.5,4.1-3.1l1.2-4c0.3-0.7,1.3-3,4.1-3v0h16.2l2.1,7C491,59.9,492,62.4,494.9,62.4 M471.8,43.8l6.3-21.1h0
		c0,0,0.3-1,1.2-1.6l6.8,22.7H471.8z"/>
	<path clip-path="url(#SVGID_2_)" fill="#FFFFFF" d="M330.6,19.3v-8.7h-30.1c-4,0-4.1,3.3-4.1,3.3h0v48.5h5.7
		c3.8-0.2,3.9-3.3,3.9-3.3V40.5h19c2.3-0.6,2.6-2.6,2.6-3v-5.3H306V19.3H330.6z"/>
	<path clip-path="url(#SVGID_2_)" fill="#FFFFFF" d="M184.4,62.5c4.1,0,4.2-3.3,4.2-3.3v-28c0-4.3,0-7.3,2.9-9.8
		c2.9-2.5,6.7-2.6,8.3-2.6c3.1,0,8.5,0.6,10.5,5.6c0.7,2,0.7,4.1,0.7,6.3v31.8h9.7V31.6c-0.1-6.5-0.1-8.1-0.7-10.4
		c-1.2-3.9-4.5-8.4-10.6-10.5c-2.9-1-6-1.4-9.2-1.4c-2.7,0-7.3,0.3-11.7,2.4h-9.5v17.4c0,0.2,0,0.4,0,0.6v32.7H184.4"/>
	<path clip-path="url(#SVGID_2_)" fill="#FFFFFF" d="M271.8,14.6c-5.4-3.9-10.9-4-15.3-4h-18.6v51.8h16.6c6.1-0.1,11.5-0.1,16.7-3.1
		c7.6-4.4,10.6-13.4,10.6-22.3C281.7,31.1,280.4,20.7,271.8,14.6 M263.8,52.4c-2.2,0.8-4.8,1.2-12.1,1.2h-4.1v-31h0
		c0,0,0.1-3.3,4.2-3.3v0h0.9c6.5,0.1,8.1,0.2,10.9,1.4c7.2,3.5,7.9,11.4,7.9,16.2C271.5,47.7,267.5,51,263.8,52.4"/>
	<path clip-path="url(#SVGID_2_)" fill="#FFFFFF" d="M151.7,9.4v31.3c0,4.3,0,7.3-2.9,9.8c-2.9,2.5-6.8,2.6-8.3,2.6
		c-3.1,0-8.5-0.6-10.5-5.6c-0.7-2-0.7-4.1-0.7-6.3V9.4h-5.6c-4,0.1-4.1,3.3-4.1,3.3v27.6c0.1,6.4,0.1,8.1,0.7,10.3
		c1.2,3.9,4.5,8.4,10.6,10.5c2.9,1,6,1.4,9.2,1.4c2.7,0,7.3-0.3,11.7-2.4h9.5V42.9V42V9.4H151.7z"/>
	<path clip-path="url(#SVGID_2_)" fill="#FFFFFF" d="M562.1,62.6l2.9-3.8l-8.3-6.4c2.7-4.5,4.2-10,4.2-16
		c0.1-17.7-11.9-27.2-24.8-27.2c-14.2,0-24.9,11.4-24.9,27.3c0,6.5,1.8,13.3,6.9,19.2c5.3,6.1,11.3,7.9,17.8,7.9
		c6.1,0,11.2-1.8,15.2-4.9l6,4.7C557.5,63.6,560.1,65.1,562.1,62.6 M549.2,46.7l-6.5-5c-2.6-1.8-4.7,0.4-4.8,0.5l-3.1,4l8.6,6.6
		c-2.3,1.3-4.9,1.9-7.2,1.9c-8.6,0-15-6.9-15-18.6c0-10.8,5.9-18,14.8-18c10.2,0,15.4,9.3,15.2,19.5
		C551.2,41.3,550.4,44.3,549.2,46.7"/>
	<path clip-path="url(#SVGID_2_)" fill="#FFFFFF" d="M27.9,31.6l-5.4-1.2c-4.7-0.9-9.5-1.8-9.5-6.2c0-4,4.5-6.3,9.8-6.3
		c5.9,0,9.3,2.6,11.5,5.1v0c0,0,3,1.8,5.2,0.2c0,0,0.1-0.1,0.1-0.1l4.5-3.4c-3.7-5-9.7-10.5-20.9-10.5c-12.2,0-20.5,6.3-20.5,16.1
		c0,8.6,6.4,11.8,8.7,12.7c1.6,0.7,3.2,1,6.5,1.8l6.2,1.3c4.7,1.1,4.9,1.2,6,1.6c1.6,0.7,3.9,1.8,3.9,5.1c0,1.8-0.7,4.4-4.4,5.9
		c-1.8,0.7-3.7,0.9-5.6,0.9c-7.6,0-11.8-2.9-14-5.2c-0.1-0.1-0.2-0.1-0.4-0.2c-2.2-1.6-5.2,0.2-5.2,0.2h0L0,52.7
		c3.9,6.3,10,8.8,13.4,9.8c3.2,0.9,6.4,1.2,9.3,1.2c11,0,22-4.8,22-16.7C44.7,35.9,34.9,33.1,27.9,31.6"/>
	<path clip-path="url(#SVGID_2_)" fill="#FFFFFF" d="M584.8,16.9c-4.2,0-7.5-3.3-7.5-7.7c0-4.4,3.3-7.6,7.5-7.6
		c4.1,0,7.4,3.3,7.4,7.6C592.3,13.6,589,16.9,584.8,16.9 M584.8,0c-5.1,0-9.4,3.9-9.4,9.2c0,5.3,4.3,9.2,9.4,9.2
		c5,0,9.3-3.9,9.3-9.2C594.1,3.9,589.8,0,584.8,0"/>
	<path clip-path="url(#SVGID_2_)" fill="#FFFFFF" d="M582.9,8.5V5.3h2.2c1.1,0,2.3,0.2,2.3,1.6c0,1.6-1.2,1.7-2.6,1.7H582.9z
		 M586.3,9.8c1.6-0.2,2.7-1,2.7-2.9c0-2.1-1.2-3-3.7-3h-4v10.6h1.6V9.9h1.9l2.8,4.6h1.8L586.3,9.8z"/>
</g>
</svg>
