<?xml version="1.0" encoding="utf-8"?>
<!-- Generator: Adobe Illustrator 18.1.1, SVG Export Plug-In . SVG Version: 6.00 Build 0)  -->
<svg version="1.1" id="Layer_1" xmlns="http://www.w3.org/2000/svg" xmlns:xlink="http://www.w3.org/1999/xlink" x="0px" y="0px"
	 viewBox="0 0 2309 1542.2" enable-background="new 0 0 2309 1542.2" xml:space="preserve">
<g id="K6XW2E_1_">
	<g>
		<path d="M745.2,499.2c-27.8-11.9-40.3-30.5-38-55.4c1.7-17.9,14.2-31.8,32-35.6c16.1-3.4,28.6,4.4,41.8,26.9
			c20.5-20.6,24.2-46.9,24.4-73.2c0.3-27.5-1.5-55.3-19.7-78.4c-2.9-3.7-8.9-7.6-13.2-7.3c-19.6,1.5-38.3,1.3-48-19.5
			c-7.4-15.9-5-31.8,6.8-44.9c15.1-16.8,35.1-21.7,55.3-14c19,7.3,36.1,19.2,56.9,30.7c31.2-18.3,54.7-48.2,73-85.7
			c-7.8-1.6-14.7-2.7-21.4-4.4c-24.4-6.1-42.5-24.9-44.8-46.1c-2.7-24.6,7.2-45,26.6-55.2c22-11.5,47-4.7,68.9,19
			c24.4-12.3,48.2-26.4,73.5-36.5c21.3-8.5,44.2-14.6,66.9-18c25.2-3.8,48.4,3.6,65.8,24.9c42.6-40.4,88.1-27.3,133.1-7.9
			c25.6,11,49.9,24.9,74.7,37.4c18.1-22.5,40.5-30.2,66.4-19.8c19,7.6,31.7,29.4,30.7,50c-1.4,28.2-16.9,42-65.4,57.5
			c16.6,36.3,40.9,65.3,73,85.6c16.7-10.4,31.4-21.1,47.4-29c17.1-8.5,35.3-7.6,52.3,2c17.5,9.9,25.8,30.8,20.2,49.5
			c-5.1,17.1-20.1,27.2-41.6,24.4c-13.8-1.8-20.5,3.4-26.8,14.3c-23.5,40.1-19.1,113.9,9.7,144.4c10.2-17.4,22-32.4,45.6-25.3
			c17.3,5.2,28.1,19.6,28.9,38.2c0.9,22.4-12.6,40.5-36.3,50.5c62,98,60.7,199,10.1,299.6c-32.3,64.3-88.9,96.5-161.4,98.8
			c-10.8,0.3-21.7,0-32.5,0c-0.7,34.9-15,51.3-43.1,49.7c-17.5-1-32.4-12.5-34.6-30c-1.4-11.3-7.4-13.9-16.4-13.8
			c-29,0.4-48.7,14.8-59.8,39.1c4.9,10.4,11.2,19,13,28.6c3.2,17.5-8.7,34.7-25.1,40.1c-18.5,6.2-37.8-0.8-48.9-17.8
			c-11.1-17-12.6-17.1-23.6-0.2c-13.3,20.4-39.7,26.3-58.5,13c-20.2-14.2-21.2-37.7-2.7-60.5c-9.4-27-35.8-45.6-61.3-42.1
			c-4.8,0.7-11.7,5-13,9.1c-8,26.2-23,37.5-47.4,34c-21.3-3.1-32.2-19.7-31.2-48.4c-20-1-40.3,0-60-3.2
			c-67.6-11.2-115.8-49.6-143.2-111.8c-34-77.2-37.2-156.5-8.2-236.2c3.2-8.7,7.8-17,12.6-24.9C733.5,514,739.2,507.3,745.2,499.2z
			 M1433.1,687.6c-12.8,8.3-30,9-44.3-3.1c-13.9-11.8-27-25.8-36.3-41.3c-9.2-15.2-13.4-33.5-19.4-50.6
			c-17-47.8-29.8-97.8-72.7-132.4c13.5-3.5,25.7-5.8,37.4-9.7c38-12.9,71.3-32.2,87.2-71.6c33.6-83.1-9.4-165.8-96.3-187.3
			c-44.4-11-88.8-2.9-133.2-1.7c-46,1.3-92.1,2.1-138.2,1.5c-18.8-0.2-33.5-9.9-39.8-29.3c-1.3-4.1-4.4-7.7-8.9-15.2
			c-5.2,8.7-9.7,14.1-11.9,20.4c-8.9,25.8,0.1,54.8,23,72c5,3.8,13,5.1,19.6,5c16-0.2,32-1.5,47.9-3c14.8-1.4,29.4-4.1,44.2-5.6
			c10.8-1.1,21.7-1.4,32.6-1.8c43-1.5,86-4.9,128.9-3.9c39.2,1,71.8,18.5,88.8,55.6c14.9,32.6,10.2,65.2-9.8,94.6
			c-21.8,32.2-56,43.6-91.8,44.4c-47,1-94.1-3.6-141.2-5.4c-9.6-0.4-10.5-5.9-10.8-13.3c-1.2-27.5-2.3-55-4.5-82.4
			c-0.4-5.5-4.7-13.5-9.2-15.2c-9.2-3.6-19.7-3.7-31.4-5.5c11.3,104.8,17.1,206.5-28.1,304.6c8.4,3.6,15.2,7.2,22.5,9.4
			c19,5.8,21.5,5.1,26.3-13.8c8.7-34.6,16.8-69.4,23.4-104.5c5.5-29.3,16.3-41.1,45.7-42.8c53.9-3.2,97.9,14.8,122.6,64.7
			c16,32.3,27.9,66.7,39.9,100.8c11.7,33,23.8,65.5,50.1,90c28.9,26.9,63.1,32.4,99.8,20.9c30.9-9.7,47.6-47.7,34-74.2
			c-6.3-12.2-16.8-19.8-30.3-16.9c-8.1,1.8-19.1,8-21.2,14.6C1425.2,664.1,1430.5,674.8,1433.1,687.6z M1357.6,877.9
			c6.1,1,9.1,1.4,12.1,2c86.5,15,163.7-25.8,200-105.4c15.9-35,24.1-72,24.1-110.1c-0.1-63.8-3.4-127.4-61.5-170.7
			c10.2-3.3,20.3-5.2,29.2-9.6c18.1-9,26.5-27.1,21.7-43.6c-3.3-11.5-11.6-17.6-23-17.2c-11.3,0.5-19.3,7-21.6,18.9
			c-0.9,4.9-1.3,9.9-2.2,16.5c-26-6.5-36.3-26.2-42.1-46.8c-15.4-54.8-13.2-107.5,26.3-153.8c2.7,1.5,4.5,3.5,6.1,3.3
			c11.3-0.8,24.3,1.1,33.3-4c10.9-6.2,9.4-19.8,4.8-31c-5.4-12.9-16.9-18.5-29.1-15.3c-14.1,3.7-29.1,8.9-40.2,17.8
			c-76,61.1-81.5,186.1-12.3,254.7c-23.8,14.1-30.2,25.8-23.2,42.3c7.4,17.4,20.9,21.2,50.1,12.4c6.3,13.4,15.3,26.7,18.8,41.3
			c5,20.5,7.7,41.9,8.1,63c0.9,46.3-6.4,91.1-34,130.2c-29.6,42-86.9,65.2-128.6,52.3c-2.7-22.6-13.6-36-30-34.5
			c-6.7,0.6-16.2,3.7-18.9,8.6c-6.4,11.8-9.6,25.4-14.3,38.8c-70.7-13-134.9,28.1-148.2,97.2c-4.8,25,2.7,46.8,19.4,56.6
			c14.6,8.6,31.5,6.1,38.8-5.8c7.8-12.7,3.7-23.9-12.4-34.7c-1.2-0.8-2.1-2.2-3-3.2c25.2-54.3,65.2-73.1,113.4-53.4
			c-0.5,2.3-1.1,4.7-1.5,7.2c-1.9,10.5-1,21.6,9.8,25.2c8.3,2.8,19.7,2.9,27.4-0.8c10.2-4.8,11.8-16,7.9-27.2
			C1360.6,893,1359.6,886.5,1357.6,877.9z M800.6,538.3c22.4,9.1,37.9,5.5,45.7-9.7c8.8-17,2.1-30.6-22.4-45.2
			c30.4-26.5,43.6-61.5,47.1-100.2c5.7-63.3-11.3-118.1-63.8-158.3c-13.3-10.2-27.8-16.3-44.7-14c-14.7,2-25.6,16.7-23.9,31.5
			c1.6,14,11.5,22.3,27.2,21.5c6.9-0.3,13.7-2.7,20.9-4.3c28.1,29.2,35.7,63.2,34,110.3c-0.9,26.3-7,51.7-24.5,72.3
			c-6.2,7.3-15.4,12.1-25.4,19.6c-0.9-6.5-1.4-8.5-1.4-10.5c0-12.5-3.7-24-16.8-26.4c-7.4-1.3-20.4,1.3-23,6.2
			c-4.6,8.9-5.8,21.5-3.7,31.5c1.5,7.3,9.6,14.9,16.7,19.2c9.3,5.7,20.5,8.2,29.3,11.5c-8.6,9.4-19.8,18.9-27.5,30.7
			c-8.1,12.4-14.6,26.4-18.9,40.5c-18.7,60.7-17.9,122.1,1.4,182.2C753,828.3,807.1,877.2,895.4,882c17.7,1,35.5,0.1,53.2,0.1
			c-1.8,13.9-15,31.2,2.8,44c6.4,4.6,19.5,4.7,27.2,1.5c14.6-6.1,13.3-20.2,8.9-33c51.3-18.8,89.3-0.4,113.6,54
			c-1.1,1-2.1,2.3-3.4,3c-11.2,5.9-19.2,15.1-14.1,27.4c2.9,7.2,11.4,14.6,18.9,16.9c13.1,4,22.8-4.2,28.4-16.1
			c8.2-17.2,11.8-35.1,7.5-54.3c-10-45.1-38.7-73.1-81.9-84.7c-20.7-5.6-43.3-3.9-65-5.6c3.2-24.2-5.5-40.7-24.5-44.4
			c-17-3.3-28.2,8.1-35.2,35.8c-58.2,9.5-113.8-19.9-140.2-75.3c-20-41.8-24.6-86.3-20.3-132.1C774.2,589.9,779.2,561.6,800.6,538.3
			z M1367.3,76.9c-16.5-8.4-32.8-17.4-49.7-25c-25.4-11.5-50.5-24.9-77.1-32c-27.6-7.4-56.9-9.9-76.1,21c-5.9,9.5-18.5,7.3-25.8-3.7
			c-9.2-13.9-21.8-19.7-37.9-20.6c-27.8-1.6-53.4,5.3-77.9,17.7c-28,14.2-56.1,28.4-84.1,42.6c-12-24.2-25.7-33.7-42.8-30.6
			c-16.4,3-28.5,15.6-30.2,31.3c-2,19.3,6.3,35.8,24.5,42.5c31.4,11.6,62.8,11.6,93.2-4.5c21-11.2,41.8-23.1,63.5-32.7
			c13.3-5.8,28.2-7.9,43.1-11.8c4.3,18.6,11.9,30,29.4,31.1c20,1.3,27.8-12.2,33.9-31.7c7.2,19.9,15.6,34.5,37,31.6
			c16.3-2.2,23-13.8,27.3-31.4c15.9,4.5,31.9,7.2,46.2,13.5c20.3,8.9,39.6,20.4,59.2,31c30.3,16.3,61.7,16.8,93.1,4.9
			c18-6.8,25.9-23,23.7-42.8c-1.7-15.4-12.7-27.2-28.8-30.7C1393.5,42.7,1379.5,52.2,1367.3,76.9z M1138.1,299.8
			c-29.4-36.6-68.8-50.7-115.1-48.5c-64.2,3-107.4,54-98.1,116c6.9,46.2,59.4,86.1,114.5,86.2c0-12.7,0-25.4,0-37.6
			c-13.6-4.8-27.1-8.4-39.6-14.2c-25.7-12-38.9-34.9-36-59.7c3.2-27.3,23.9-50.3,50.5-56.6c28.1-6.7,54.1-0.9,76.5,16.1
			c16.7,12.7,30.8,28.8,45.3,42.7c18.3-20.8,37.9-43.2,57.5-65.5c-1.1-1.7-2.2-3.5-3.3-5.2C1173.5,281.9,1156.6,290.4,1138.1,299.8z
			 M972.4,625.8c6.7,5.1,12.6,10.1,19,14.2c32,20.4,66.3,29.6,103.6,17.6c67.8-21.8,94.3-96.6,61.9-168.1
			c-6.2-13.6-14.1-14.5-25.6-8.8c-12.8,6.4-16.3,15.5-10.2,27.3c11.2,21.7,14.1,44.7,7.5,67.9c-15.6,54.4-84.2,71.4-126.9,29.7
			c-16.5-16.1-26.2-39.1-38.9-59c-3.3-5.1-6.1-10.5-9.2-15.8c-1.2,0.4-2.4,0.9-3.6,1.3c-4.3,33.9-8.5,67.9-12.9,102.8
			c8.3,3,17.8,6.3,27.7,9.8C967.7,637.7,969.9,632,972.4,625.8z M979.7,666c-5.4-2.7-10.4-5.3-15.5-7.7
			c-26.7-13.1-54.4-19.6-84.2-14.6c-34.4,5.8-61,29-65.6,57.7c-5.2,33.1,25.3,65.2,54.2,56.5c4.5-1.4,7.7-6.9,11.5-10.5
			c-3.9-2.5-7.5-6.6-11.6-7.2c-12.3-1.7-22.5-5.6-25.5-18.9c-3.3-14.4,2.1-27.8,14.7-32.7c12.7-5,28.2-6.9,41.6-4.9
			c33.5,5.1,61.7,22.8,88.6,47.5c15.7-19.5,30.6-38,46.3-57.7c-16.9-7.7-30.4-13.8-44.4-20.2C986.4,657.6,983.2,661.6,979.7,666z
			 M1253.6,621.3c-10.1,7-20,14-32.2,22.5c0-45.7,0-88.5,0-131.3c0-25-1.8-26.9-28.6-28.9c0,71.2,0,142.3,0,215.7
			c19.1-14.8,36.3-28,53.4-41.3C1263.6,644.4,1263.7,643.4,1253.6,621.3z M1193,416.1c10.3,0,18.8,0,27.9,0
			c0.5-9.5,0.9-17.9,1.4-26.5c10.2-0.5,18.3-0.9,26.1-1.4c5-13.7-3.7-13.7-11.6-13c-11.7,1-15.9-3.7-14.8-15.2
			c0.8-8.2,0.2-16.6,0.2-28.7c-12.6,11.9-21.9,20.1-30.6,28.8c-8.5,8.6-16.4,17.7-26.2,28.3c10,0,18.4,0,27.6,0
			C1193,398.4,1193,406.5,1193,416.1z M1356.3,488.8c6.9,11.4,12.9,21.3,19.3,31.8c11.9-7.2,22.3-13.5,33.6-20.3
			c-7.3-10.8-13.7-20.4-20.3-30.2C1377.7,476.5,1368,482.1,1356.3,488.8z M933.5,708.8c-21.7-11.8-29.4-9.6-36.8,9.4
			c-1.3,3.2-1.5,9.2,0.4,10.8c2.4,2,8.6,2.4,11.2,0.7C916.9,723.5,924.7,716.2,933.5,708.8z"/>
		<path d="M1195,1533.7c-33.1,0-66.2,0.5-99.3-0.2c-15.4-0.3-24.6-9.4-27.5-24.8c-6.9-36.6-14-73.2-21.1-109.8
			c-9.1-46.9-29.3-63.6-76.6-63.6c-16.5,0-32.9,0-49.7,0c0,50-0.4,98.1,0.2,146.2c0.3,19,12.2,30,30.1,34.9c7.5,2.1,15,4,22.3,6.6
			c3.2,1.1,5.8,3.9,12.6,8.8c-8.9,1.3-12.7,2.4-16.5,2.4c-59.7,0.1-119.4,0.2-179.2-0.1c-4.4,0-8.8-2.9-13.1-4.5
			c3.8-2.7,7.5-5.6,11.6-7.8c2.7-1.4,5.9-1.7,8.9-2.6c33.6-9.4,40.5-18.6,40.5-54.2c0-89.8,0-179.7-0.1-269.5
			c0-8.3-0.8-16.6-1.6-24.8c-1.5-15.2-10.2-24.3-24.7-28.5c-9.4-2.8-18.9-5.6-28-9.2c-2.7-1-4.5-4.5-6.6-6.9
			c2.8-1.6,5.7-3.1,8.5-4.7c0.4-0.2,1,0,1.5,0c82,0.9,164.1,0.6,246,3.5c22.6,0.8,46,8.7,67.1,17.8c71.7,30.9,61.5,121.5,10.7,151.4
			c-20.7,12.1-43.9,19.9-63.3,28.4c9.4,2.4,22.7,5.1,35.7,9.1c25.8,8.2,42.1,25.5,47.8,52.3c6.9,32.9,14.2,65.8,20.9,98.8
			c3.9,19.4,13.2,33.3,33.7,38.1c4.4,1,8,5.6,11.9,8.5C1196.6,1530.9,1195.8,1532.3,1195,1533.7z M921,1304.4
			c23.9,0,47.4,2,70.4-0.4c42.4-4.5,69.1-32.7,70.9-71.3c1.9-40.6-19.7-69.8-61.1-77c-25.7-4.5-52.3-3.8-80.3-5.6
			C921,1203,921,1253,921,1304.4z M883.9,1146.1c-3,0-6-0.1-9-0.1c-2.9,10.3-7.9,20.6-8.4,31.1c-1.2,24.8-0.3,49.7-0.2,74.6
			c0.4,77.7,0.7,155.5,1.2,233.2c0.1,11.8,0.7,23.5,16.4,32.8c3-11.4,7.7-20.9,7.7-30.5c0.4-104.2,0.4-208.4-0.2-312.6
			C891.2,1165.1,886.4,1155.6,883.9,1146.1z M1057.6,1343.4c5.6,16.6,12.6,33.1,16.8,50.3c8.2,33,14.7,66.5,22.1,99.7
			c4.5,20.5,14.8,26.2,36,20.4c-3.6-9-8.3-17.7-10.6-27c-8.9-36.1-17-72.3-25.4-108.5C1090.6,1353.1,1083.9,1347.1,1057.6,1343.4z
			 M1072.6,1168.4c31.1,42.9,29.6,82.3-8.2,119.6c35.8-6.4,56.2-33.9,54.2-70C1117.1,1193.4,1097.2,1170.1,1072.6,1168.4z"/>
		<path d="M286.4,1112.5c0,34.1,0,68.3,0,102.4c0,2.4-0.7,4.8-4.7,8.9c-3.1-5-6.8-9.8-9.3-15.2c-28.9-61.8-84.5-76.9-141.5-62.4
			c-37.7,9.6-57.3,40.1-50.8,74.1c3.4,17.8,14.5,30.2,29.6,38c22,11.4,45.2,20.5,67.7,30.8c24.9,11.4,50.8,21.2,74.3,35.1
			c38.7,22.9,56.1,58.7,52.7,103.6c-3.3,44.4-26.9,75.7-67,93.6c-58,25.9-117.9,23.8-178.3,9.4c-2.5-0.6-5-1.5-7.5-2.1
			c-30.1-7.1-30.1-7.1-51.5,13.4c0-42.2,0-82.7,0-123.2c1.2-0.4,2.5-0.8,3.7-1.2c2,4.2,4.3,8.2,5.9,12.5
			c31.5,81.6,109.9,92,166.3,73.4c38.6-12.7,59.8-47.6,47.4-80.3c-5.5-14.4-17.8-28.7-30.8-37c-21.2-13.4-45.7-21.7-68.7-32.3
			c-23.9-11.1-49.1-20.2-71.4-34c-69.3-43.1-70-132.1-2-177.7c40.5-27.2,86-34.5,133.8-29.3c14.9,1.6,29.6,5.4,44.4,7.5
			c19,2.7,39.6,13.7,54.3-11.6C284.2,1110.1,285.3,1111.3,286.4,1112.5z M228.3,1499.8c0.9,0.8,1.8,1.6,2.7,2.4
			c3.5-1.6,7.2-2.7,10.4-4.7c46.3-29.5,50.5-93.8,5.6-131.5c-23.4-19.7-52-33.5-79-48.7c-27-15.2-56.1-26.9-82.3-43.3
			c-37.7-23.6-43-46.6-24.8-86.8c4-9,7.7-18.1,11.5-27.2c-1.1-0.8-2.2-1.6-3.3-2.4c-6,4.6-12.8,8.5-17.9,14
			c-31.1,33.2-30.6,81,5.1,110c23.7,19.3,52.5,32.5,79.7,47.2c26.4,14.3,54.3,25.6,80.1,40.7c29.2,17.1,42.7,43.9,35.1,77.7
			c-3.2,14.3-11.2,27.6-17.2,41.2C232.5,1492.6,230.3,1496.1,228.3,1499.8z"/>
		<path d="M1715.7,1386.3c48.6,0,97.1,0,145.7,0c0.6,1.1,1.3,2.2,1.9,3.3c-4.4,3-8.5,7.2-13.4,8.7c-20.2,6.5-26.5,20.8-26,40.6
			c0.6,25.4,0.5,50.9-0.2,76.3c-0.1,4.5-3.5,12.4-6.4,12.9c-58.3,11.2-117.3,19.2-175.6,2.1c-83.1-24.3-118.9-96-107.1-178.3
			c12.2-84.8,73.3-135.7,162.1-137c29.8-0.4,59.7,5.7,89.6,7.3c12.3,0.6,24.9-2.9,38.2-4.6c0,25.8,0,54,0,85.7
			c-4.4-3.6-8.5-5.3-10.1-8.3c-24-47.2-65.2-57.8-112.9-52.3c-44.5,5.2-74.9,34.3-86.4,82.1c-9.6,40-9.9,80.3,4.6,119.5
			c20.6,55.5,74.5,81.7,130.9,63.4c4.2-1.3,9.1-8,9.3-12.3c1-20.2,0.2-40.5,0.5-60.7c0.2-16-6.3-26.5-21.8-31.9
			c-8.6-3-16.7-7.7-25-11.6C1714.3,1389.5,1715,1387.9,1715.7,1386.3z M1632.9,1503.4c-67.2-84.9-71.5-169,1.8-255.7
			c-56,20.4-85.4,81.5-76.8,149.8C1564.3,1448.5,1599.6,1499.7,1632.9,1503.4z M1791.5,1515.9c18.3-15.1,18.4-80.2,0.2-106.8
			C1775.4,1433.9,1775.4,1490,1791.5,1515.9z"/>
		<path d="M1327.7,1248c-0.3,4.4-0.6,6.9-0.6,9.4c0,32.7,0,65.3,0,99.7c30.6,0,60.5,1,90.2-0.8c6.7-0.4,14-9.7,18.7-16.5
			c6-8.6,9.7-18.8,17.6-27.9c4.2,38.8,3.2,77.3,3.7,119.8c-5.5-3.8-9.3-5.2-10.9-7.9c-4.4-7.6-6.5-16.9-12.1-23.3
			c-5.6-6.5-14.1-14-21.8-14.5c-27.8-1.7-55.8-0.7-84.6-0.7c0,39.6,0,78.2,0,118.2c40.5,0,80.3,0.4,120.1-0.2
			c13.6-0.2,20.1-11.1,25.7-22.2c5.2-10.5,10.9-20.8,16.3-31.2c1.4,0.6,2.9,1.2,4.3,1.9c0,26.5,0,53,0,80.2c-92.9,0-185.4,0-277.9,0
			c-0.7-1.6-1.3-3.1-2-4.7c7.1-3.6,13.9-8.4,21.4-10.5c19.4-5.5,25.5-18.7,25.4-37.4c-0.2-68-0.2-136,0-204c0.1-19-5.7-33-25.8-38.7
			c-7.4-2.1-14-6.8-21-10.3c0.4-1.4,0.9-2.8,1.3-4.1c90.3,0,180.5,0,272,0c0,23.5,0,47.8,0,72.2c-1.2,0.6-2.4,1.3-3.5,1.9
			c-3.5-5.5-8.2-10.6-10.3-16.5c-8.9-25.6-26.5-34-53-32.4C1390.6,1249.4,1359.9,1248,1327.7,1248z M1291.2,1517.9
			c2.3,0.1,4.6,0.1,6.9,0.2c2.6-9.9,7.4-19.9,7.4-29.8c0.6-69.4,0.6-138.9-0.3-208.3c-0.2-13.6-5-27.2-7.6-40.7
			c-2.2,0-4.3,0.1-6.5,0.1c-2.8,11.8-7.9,23.5-8.1,35.3c-0.6,69.4-0.5,138.8,0.4,208.3C1283.6,1494.6,1288.5,1506.2,1291.2,1517.9z"
			/>
		<path d="M2076.5,1539c0-32.3,0-64,0-95.6c1.2-0.7,2.5-1.4,3.7-2.1c2.7,4.3,6,8.4,8,13c20.3,48.3,69.5,70.3,119.2,53.3
			c20.7-7.1,35.5-20,37.8-42.8c2.2-21.7-10.9-35.1-28.5-44.1c-16.6-8.5-34.1-14.9-51-22.8c-17.8-8.3-36.5-15.4-52.7-26.2
			c-47.4-31.9-48.4-96.2-2.5-130.4c39-29.1,83.3-31.3,129.2-22.7c18.1,3.4,36.7,12.8,54.9-7.2c0,32.1,0,60.6,0,89.1
			c-1.1,0.7-2.1,1.3-3.2,2c-3-4.3-6.5-8.4-9-13c-21.1-40.2-63.8-58-106.7-44.1c-19.3,6.2-32.7,18.3-35.1,39.3
			c-2.3,20.4,8.8,33.9,26,41.9c26.3,12.1,53.5,22.3,79.9,34.2c27.2,12.3,50.5,29.2,58.9,60.1c14.8,54.1-16.8,101.1-76.7,113.7
			c-33,6.9-66,6.2-98.8-1.1C2100,1526.9,2100,1526.8,2076.5,1539z M2236.8,1512.9c3.5,0.5,5.2,1.3,6.4,0.8
			c49.3-20.2,59.9-80.5,19.2-115.3c-13.9-11.9-31.2-20.2-47.9-28.1c-19.1-9.1-39.7-15.1-58.8-24.1c-44.7-20.9-51.2-58.4-17.2-94.6
			c2.3-2.5,3.9-5.7,5.8-8.5c-25.9,6.5-41.8,22.5-47,46.9c-5,23.3-0.2,45.1,20.8,59.3c12.3,8.3,26,14.8,39.7,20.8
			c21.8,9.5,44.9,16.2,66,26.9c47.5,24.1,54.9,65.2,20.6,105.9C2242,1505.7,2239.9,1508.8,2236.8,1512.9z"/>
		<path d="M394.6,1526.2c10.1-4.2,20-8.8,30.3-12.4c11.7-4.1,18.7-11.8,18.8-23.9c0.3-79.9,0.2-159.8,0.2-241.4
			c-23.2,0-44.8-1.1-66.2,0.7c-5.8,0.5-12.2,8.9-15.9,15.1c-8.6,14.4-15.6,29.7-23.3,44.6c-1.5-0.4-3-0.8-4.5-1.2
			c0-28.3,0-56.6,0-86.1c94.9,0,191,0,288,0c0,28.6,0,56.9,0,89.3c-5.1-5-8.8-7.2-10.5-10.5c-6.9-12.8-11.9-26.8-20.1-38.5
			c-4.6-6.6-14-12.7-21.8-13.5c-18.4-2-37.2-0.6-58-0.6c-0.3,6.6-0.9,12.6-0.9,18.5c-0.1,71.7,0.1,143.3-0.3,215
			c-0.1,17.4,6.2,28.6,23.2,33.9c9.3,2.9,18.1,7.1,27.2,10.8c-0.5,1.6-0.9,3.2-1.4,4.7c-54.3,0-108.6,0-162.9,0
			C395.7,1529.3,395.2,1527.7,394.6,1526.2z M481.3,1240c-2.4,0.2-4.8,0.3-7.1,0.5c-3.1,10.2-9,20.3-9,30.5
			c-0.4,71.6,0.1,143.2,1.2,214.8c0.2,10.4,5.3,20.8,8.1,31.2c2.5,0,4.9,0,7.4-0.1c2.4-10,6.7-20,6.8-30c0.6-68,0.7-136-0.1-204
			C488.4,1268.6,483.9,1254.3,481.3,1240z"/>
		<path d="M2033.4,1532c-51.4,0-102.9,0-154.3,0c-0.6-1.4-1.2-2.8-1.8-4.2c5.1-2.8,10-6.2,15.4-8.5c29.1-12.2,30.1-13.6,30.2-44.7
			c0-65.9,0-131.8,0-197.6c0-28.1-1.9-30.7-27.8-41.6c-6.1-2.6-11.9-6.1-17.8-9.1c0.4-1.3,0.8-2.7,1.2-4c51.7,0,103.4,0,160.2,0
			c-7.1,5-10.5,9.2-14.8,10.2c-28.8,6.8-35.7,25.7-35.1,53.2c1.5,61.7,0.4,123.4,0.5,185.2c0,34.8,0.9,35.8,32.8,49.3
			c4.6,2,8.8,5,13.2,7.5C2034.6,1529.1,2034,1530.6,2033.4,1532z M1951.4,1517.2c2.9,0.2,5.8,0.4,8.8,0.5c2.8-9.9,8-19.7,8.1-29.6
			c0.6-71,0.6-142.1-0.4-213.1c-0.2-12.1-6.1-24.1-9.4-36.1c-2.4,0.2-4.8,0.3-7.3,0.5c-2.4,15.4-6.7,30.8-6.9,46.2
			c-0.7,62.2-0.5,124.4,0.4,186.7C1944.9,1487.3,1949,1502.2,1951.4,1517.2z"/>
		<path d="M685.3,1502.5c0,19-14.6,33.3-33.7,33.1c-19-0.2-33.3-15.1-32.9-34c0.4-18.3,14.6-32.1,33-32.3
			C670.9,1469.1,685.4,1483.4,685.3,1502.5z M671.8,1502.1c-9-6.2-15.2-13.7-19.5-12.7c-5.5,1.3-9.4,9.4-14,14.5
			c4.9,4.2,9.8,11.6,14.8,11.7C658.1,1515.8,663.3,1508.6,671.8,1502.1z"/>
	</g>
</g>
</svg>
