<?xml version="1.0" encoding="utf-8"?>
<!-- Generator: Adobe Illustrator 18.1.1, SVG Export Plug-In . SVG Version: 6.00 Build 0)  -->
<svg version="1.1" id="Layer_1" xmlns="http://www.w3.org/2000/svg" xmlns:xlink="http://www.w3.org/1999/xlink" x="0px" y="0px"
	 viewBox="0 0 1925.1 485.1" enable-background="new 0 0 1925.1 485.1" xml:space="preserve">
<g id="yX4QAU_1_">
	<g>
		<g>
			<path d="M963,485c-319.2,0-638.3,0-957.5,0.1c-3.7,0-4.6-0.8-4.6-4.6C1,322.2,1,163.8,0.9,5.5c0-3.7,0.8-4.6,4.6-4.6
				c638.3,0.1,1276.7,0.1,1915,0c3.7,0,4.6,0.8,4.6,4.6c-0.1,158.3-0.1,316.7,0,475c0,3.7-0.8,4.6-4.6,4.6
				C1601.3,485,1282.2,485,963,485z M553.3,240.1c0,44.1,0,88.3,0,132.4c0,6.1,0.1,6.2,6.1,6.2c10.3,0,20.7,0,31,0
				c6.4,0,6.4,0,6.4-6.4c0-24,0-48,0-72c0-1.5,0-3,0.1-4.5c0.2-1.9,0.9-2.8,2.9-1.4c4.3,3,9,5.5,13,8.9c7,6,15.4,8,24,9.1
				c4.1,0.5,8.4-1.1,12.6-1.6c13.1-1.6,21.5-9.3,27.7-20.6c5.6-10.2,6.7-21.2,7.6-32.4c0.4-5.1,0.2-10.3,0-15.5
				c-1.1-35.3,2.1-70.7-1.8-106.1c-1.3-12-6.6-21.6-14.3-29.6c-6.1-6.3-14.6-10.1-24.2-9.5c-3.7,0.2-7.3,0-11,0
				c-10.2,0.1-19,3.8-26.3,10.9c-3.1,3-6.1,6.1-9.2,9.1c-1.8,1.7-3,1.3-3.1-1.2c-0.1-2.5-0.1-5-0.1-7.5c0-7.3,0-7.3-7.1-7.3
				c-9.2,0-18.3,0-27.5,0c-6.9,0-6.9,0-7,6.9C553.3,152.1,553.3,196.1,553.3,240.1z M109.3,240.1c0,44.2,0,88.3,0,132.5
				c0,6,0.2,6.1,6.2,6.1c9.8,0,19.7,0,29.5,0c7.8,0,7.8,0,7.8-7.6c0-24.2,0-48.3,0-72.5c0-1.6,0.5-3.2,0.8-4.8
				c1.7,0.5,3.4,1,5.1,1.6c0.3,0.1,0.5,0.4,0.7,0.7c8.5,6.7,17,12.7,28.2,15.3c9.6,2.2,18.2,0.6,26.4-2.7
				c10.4-4.2,17.5-12.5,21.3-23.3c2.8-7.8,5.4-15.5,5.4-23.9c-0.1-34,0.1-68-0.1-102c0-7.7,0.2-15.4-1.5-23.2
				c-1.9-8.6-4.8-16.2-9.4-23.6c-7-11.3-17.5-14.8-29.7-15.5c-3.3-0.2-6.7,0-10,0c-10.6,0-19.7,3.7-27.1,11.2
				c-2.7,2.7-5.4,5.5-8.1,8.1c-0.8,0.7-1.9,1.1-2.9,1.6c-0.4-1-1-2-1.1-3.1c-0.2-3-0.2-6,0-9c0.2-3.8-1.4-4.9-5-4.9
				c-9.7,0.1-19.3,0-29,0c-7.5,0-7.5,0-7.5,7.4C109.3,152.4,109.3,196.3,109.3,240.1z M1204.2,97.4c0-0.3-0.1-0.7-0.1-1
				c-6.7,0.9-13.3,2.2-20,2.7c-6.3,0.4-11.9,2.4-17.3,5.5c-4.1,2.4-7.7,5.8-12,7.7c-7.4,3.3-11.1,10.2-14.9,16.2
				c-8.1,12.6-9.7,27.4-10.5,42.1c-0.1,2.7,1.3,5.4,1.8,8.1c0.9,4.8,1.1,9.9,2.4,14.6c3.9,13.6,11.5,25.2,20.8,35.5
				c11.8,13,25.2,24.3,38.7,35.5c8.6,7.1,15.9,15.9,23,24.6c6.1,7.4,9.8,15.8,9.2,26c-0.5,7.9-2.8,14.2-8.5,19.8
				c-6,6-22.1,6.2-28-0.1c-5.6-6.1-8.2-13.4-10.2-21.1c-0.5-2-0.4-4.1-3.2-4.1c-4.2,0-8.4-0.3-12.5,0.2c-8.6,1-17.2,2.6-25.8,3.7
				c-2.9,0.4-4,1.4-4.2,4.3c-0.3,6.8,1.7,13,3.9,19.2c6.1,17.7,16.3,32.1,33.9,39.9c8,3.5,16.1,6.4,25.2,6.3
				c12-0.1,23.5-2.1,34.9-5.9c13.8-4.7,23.7-13.5,31.7-25.5c6.4-9.5,8-20.1,9.6-30.7c1.7-11.3,0-22.8-3.6-33.7
				c-4.4-13.1-10.7-25.3-20.5-35.2c-9-9.2-18.8-17.7-28.3-26.5c-9.5-8.8-19-17.4-28.4-26.4c-2.6-2.5-4.4-5.7-6.5-8.7
				c-5.9-8.5-9.4-17.6-8.6-28.3c0.6-9.1,4.3-15.8,12.7-19.4c2.9-1.3,6.3-1.5,9.5-2.1c9.5-1.8,19.8,3.3,24.3,12
				c3.9,7.4,7,15,6.1,23.6c-0.3,3.1,1.1,4.8,4.3,4.4c4.2-0.5,8.4-1.4,12.6-1.9c7.2-0.8,14.4-1.4,21.6-2.2c7.5-0.8,10.4-5,8.6-11.9
				c-1.2-4.6-3-9.1-3.4-13.8c-0.9-10.1-7.1-17.6-11.7-25.9c-1.9-3.4-4.6-6.4-7.4-9.2c-2-2.1-4.6-3.7-7-5.4
				c-3.5-2.5-6.7-5.4-10.6-7.2C1226.3,98.4,1215.5,96.2,1204.2,97.4z M1668.7,239c0-10.7,0-21.3,0-32c0-33.3,0-66.7,0-100
				c0-5.5-0.3-5.7-5.6-5.7c-11.7,0-23.3,0.1-35-0.1c-3.7,0-5.2,1.4-4.9,5c0.1,1.5,0,3,0,4.5c0,48.7,0,97.3,0.1,146
				c0,4.3-1.3,7.4-4.6,9.8c-5.8,4.2-12.6,6.2-19.3,8.4c-4.7,1.5-13.1-2.8-14.3-7.5c-1.2-4.4-2.2-9-2.2-13.6
				c-0.2-48.7-0.1-97.3-0.1-146c0-6.6,0-6.6-6.7-6.6c-9.7,0-19.3,0-29,0c-7.8,0-7.8,0-7.8,7.6c0,51.5,0,103,0.1,154.5
				c0,6.7-0.1,13.4,1.6,20.2c3.4,13.9,12.7,23.4,26.1,27.7c9.5,3.1,18.2,0.7,26.7-1.3c8.6-1.9,16.2-7,22.6-13.6
				c1.4-1.4,3.5-2.2,5.2-3.2c0.6,2,1.2,3.9,1.6,5.9c0.2,1,0,2,0,3c0,23.2,0,46.3,0,69.5c0,5.9,1.3,7.1,7,7.2c9.8,0.1,19.7,0,29.5,0
				c8.2,0,8.9-0.7,8.9-8.8C1668.7,326.3,1668.7,282.6,1668.7,239z M1508.7,204.3c0-8.7-0.3-17.3,0.1-26c0.6-14.8-1.1-29.3-5.9-43.4
				c-3.7-10.8-9.5-19.9-19.4-26.6c-11.4-7.7-23.4-11.7-37.1-11.2c-11.2,0.4-22.4-0.5-33.3,3.8c-11.4,4.4-20.3,11.5-26.5,21.9
				c-7.9,13.2-11.8,27.5-11.3,42.9c0.1,3.6,1.3,5,5,5c11.3-0.1,22.7-0.1,34,0c3.1,0,4.5-1,4.7-4.3c0.3-4.7,1.2-9.4,1.8-14.1
				c1.2-9.5,6.6-15.2,15.6-18.4c7.3-2.5,13.3-0.5,18.8,3.8c6.3,4.8,8.3,11.6,8.2,19.3c-0.1,10.3,0,20.7,0,31c0,7.2,0,7.2-7.3,7.2
				c-24.8,0-49.7,0-74.5,0c-6.1,0-6.2,0.1-6.2,6.1c0,15.7-0.2,31.3,0.1,47c0.1,5.7,0.6,11.7,2.4,17c4,12.1,8.9,23.9,19.4,32.3
				c2.3,1.8,4.7,3.6,7.2,5.2c6.9,4.4,14,8,22.5,7.9c1.7,0,3.5-0.2,4.9,0.4c10.4,4.3,20.5-0.2,30.7-1.3c6.1-0.6,11.2-4.1,16.6-6.9
				c9-4.8,15.1-11.9,19.7-20.3c6.9-12.8,9.7-26.9,10-41.3C1508.9,228.9,1508.7,216.6,1508.7,204.3z M411.4,101.3
				C411.4,101.3,411.4,101.3,411.4,101.3c-6.2,0-12.3,0-18.5,0c-1.9,0-3.5,0.1-3,3.1c1.3,8.5,3.1,17.1,3.2,25.7
				c0.3,40.5,0.1,81,0.1,121.5c0,1.3,0.1,2.7-0.1,4c-0.7,6.6-0.2,12.9,1.8,19.3c4.2,13.7,12.5,23.7,25.3,30.3
				c10,5.2,21,6.4,31.9,7.3c5.5,0.4,11.1-1.7,16.6-1.7c11.9,0,21.5-5.7,30.7-12c4.3-3,8.6-6.7,11.4-11c4.4-6.9,8.2-14.3,11.1-21.9
				c1.9-4.8,2.1-10.3,2.6-15.5c0.3-3.1-1.8-5.1-4.9-5.1c-11.7-0.1-23.3-0.1-35,0.1c-1.1,0-2.9,1.6-3.3,2.8
				c-1.1,3.4-1.2,7.2-2.4,10.5c-2.1,5.7-3.9,11.8-10.7,14c-2,0.7-4.1,1.3-6.1,2c-6.5,2.3-18.1-2.1-21-8.3c-3.5-7.6-5.5-15.7-4.4-24
				c0.3-2,2.2-4.5,4-5.5c5.2-2.8,10.8-4.8,16.1-7.4c11.1-5.5,22.4-10.5,32.4-18c9-6.7,18.5-12.7,24.4-22.7c2-3.4,4.5-6.6,6-10.2
				c2.5-5.8,4.9-11.8,6.6-17.9c1.3-4.5,1.4-9.4,2-14.1c0.2-1.6,0.3-3.4,0-5c-1.2-5.9-2.1-12-3.9-17.7c-3.9-12.3-12.4-20.2-24.6-24.7
				c-7.3-2.7-14.8-1.4-22.1-2c-8.4-0.7-16,2.3-23.3,5.6c-5.2,2.3-10,5.7-14.8,8.8c-3.2,2-5.8,1.3-6.7-2.4c-0.3-0.9-0.3-2-0.2-3
				c0.4-4.1-1.7-5.2-5.4-5.1C422.1,101.4,416.7,101.3,411.4,101.3z M879.3,193c0,12.7-0.3,25.3,0.1,38c0.5,14.5-2.4,29.3,2,43.6
				c1.9,6.2,4.5,12.7,8.5,17.6c7.1,8.5,16,15.3,27.7,16.9c7.6,1.1,15.2,3.4,22.8,3.4c8.1,0,16.3-1.6,24.2-3.6
				c13.2-3.4,24.3-10.7,32.4-21.6c4.2-5.6,7.2-12.1,9.8-18.6c2.1-5.3,2.9-11.1,3.8-16.7c0.9-5.4-0.2-6.6-5.6-6.6
				c-10.7,0-21.3,0-32,0c-5,0-7.2,1.9-7.7,6.9c-0.2,1.6,0.1,3.4-0.1,5c-1,6.8-3.4,12.6-10.5,15.5c-7.7,3.2-14.9,3-22.4-0.6
				c-3-1.5-5.2-3.3-6.4-6.5c-3.1-8.4-3.9-17-3-25.8c0.1-1,1.3-2.3,2.3-2.7c6-2.7,12.3-4.8,18.2-7.7c13.9-6.9,27.7-13.5,40.1-23.4
				c7.4-6,12.7-13.3,18.8-20.1c1.8-2,3.3-4.6,4.2-7.2c1.8-4.9,3.5-9.9,4.7-15c1.5-6.7,2.4-13.5,3.5-20.3c0.1-0.5,0-1-0.1-1.5
				c-1.3-6.1-2.2-12.3-4.1-18.2c-2.8-9-8.5-15.8-16.7-20.8c-8.5-5.1-17.7-5.5-27.2-5.7c-15-0.4-27.7,5.2-39.5,13.4
				c-5.8,4-5.6,4.2-7.9-2.3c-0.2-0.6-0.4-1.3-0.4-1.9c0.4-4.6-2.3-5.1-5.9-5c-10,0.1-20,0-30,0.1c-5.4,0-5.9,0.3-5.6,5.7
				c0.3,5.7,1.8,11.4,1.8,17.1C879.4,147,879.3,170,879.3,193z M844.7,204.2c0-7.2,0-14.3,0-21.5c0-25.3,0-50.7,0-76
				c0-5.1-0.3-5.4-5.4-5.4c-11.5,0-23,0-34.5,0c-5.2,0-5.5,0.3-5.6,5.3c0,1.3,0,2.7,0,4c0,48.7-0.1,97.3,0.1,146
				c0,5.4-1.9,8.8-6.7,11c-5,2.3-9.4,5.6-15.1,6.8c-6.5,1.4-15.5-1.4-17.9-7.5c-0.9-2.2-0.9-4.9-0.9-7.3c0-50.7,0-101.3,0-152
				c0-6.1-0.1-6.2-6.1-6.2c-10.2,0-20.3,0-30.5,0c-6.8,0-6.9,0-6.9,7c0,56.5,0,113,0.1,169.5c0,3.2,0.8,6.6,2.1,9.5
				c2.6,5.5,5,11.6,9.2,15.6c7.6,7.3,17.4,10.4,28.1,9.8c2.7-0.1,5.4-1.8,8.1-1.8c4.5,0,8.5-0.9,12.2-3.4
				c5.8-3.8,11.5-7.6,17.4-11.3c2.5-1.6,5-2.9,7.6-4.4c0.4,2.9,0.8,5.7,1.1,8.6c0.1,0.5,0,1,0,1.5c0.1,5.5,1.4,6.8,6.9,6.8
				c9.3,0.1,18.7,0,28,0c7.8,0,8.6-0.8,8.6-8.6C844.7,268.1,844.7,236.2,844.7,204.2z M1731.3,218c0,37,0,74,0,111
				c0,6-0.3,6.3-6.2,6.3c-11.5,0-23,0.1-34.5,0c-3.7,0-5.5,0.9-5.4,5.1c0.2,11.2,0.2,22.3,0,33.5c-0.1,4.1,1.7,5,5.4,5
				c43-0.1,86-0.1,128.9,0c3.9,0,5.3-1.3,5.2-5.2c-0.2-10.7,0-21.3-0.1-32c0-6.3,0-6.3-6.5-6.3c-10.8,0-21.7,0.1-32.5-0.1
				c-2.2-0.1-5.9-1.5-6.1-2.8c-0.8-4.2-0.3-8.6-0.1-13c0.1-2.1,1.5-4.3,1.1-6.2c-1.1-5.7,0-11.4,0.2-17.1c0.3-9.7-1.7-19.4-0.1-29.1
				c0.3-1.7-0.5-3.6-0.6-5.4c-0.2-2.8-0.6-5.7-0.5-8.5c0.2-5,1.1-10.1,1.1-15.1c-0.1-6.1-1.1-12.2-1.1-18.3c0-4.6,0.9-9.3,1.2-13.9
				c0.7-11.3-0.4-22.7-0.2-34c0.1-7.4,0.4-14.8,0-22.1c-0.4-7.8-0.1-15.6,0.2-23.3c0.1-4.2,0-8.4-0.1-12.5c0-0.9-0.7-1.8-0.9-2.8
				c-0.3-1.3-0.8-2.6-0.7-3.8c0.4-5.7,0.3-5.9-5.6-5.9c-11.8,0-23.7,0-35.5,0c-6.6,0-6.6,0-6.6,6.8
				C1731.3,144.7,1731.3,181.3,1731.3,218z M1096.7,199c0-20.8,0.1-41.7-0.1-62.5c0-3.7-0.8-7.5-1.8-11.1c-4.4-17-16.6-25.5-33-27.8
				c-9.8-1.4-20-0.5-29.9-0.1c-2.8,0.1-6.6,0.9-6.7,5.3c-0.1,10.2-0.1,20.3,0.1,30.5c0,1.1,1,2.9,1.8,3.1c3,0.5,6.1,0.7,9.1,0.6
				c8.2-0.4,16.9,2.8,16.9,12.2c0.1,39,0,78,0.1,117c0,4-1.8,5.2-5.5,5.1c-5.8-0.2-11.7,0.1-17.5-0.1c-3.5-0.1-5.2,1-5.1,4.8
				c0.2,8.8,0,17.7,0.1,26.5c0.1,4.7,1.6,6.1,6.5,6.2c5,0.1,10,0,15,0c6.2,0,6.5,0.3,6.5,6.5c0,13.7,0,27.3,0,41
				c0,7.7,0.8,8.5,8.7,8.5c9.3,0,18.7,0,28,0c6.7,0,6.8,0,6.8-6.6c0-14.3,0-28.7,0-43c0-6.1,0.3-6.4,6.6-6.4c4.5,0,9-0.1,13.5,0
				c2.7,0,3.9-1.2,3.9-3.9c0-9.8-0.1-19.7,0-29.5c0-3-1.4-4.1-4.3-4.1c-4.3,0.1-8.7,0-13,0c-6.5,0-6.7-0.2-6.7-6.8
				C1096.7,242.6,1096.7,220.8,1096.7,199z M358.7,204c0-31.5,0-63,0-94.5c0-1.5,0-3,0-4.5c0-2.4-1-3.7-3.6-3.7
				c-12.3,0-24.7,0-37,0.1c-2.9,0-4.6,1.8-4.8,4.7c-0.1,1.7-0.1,3.3-0.1,5c0,45.3-0.2,90.6,0.1,136c0.1,9.2-11.1,21.2-19.1,22
				c-10,1-20.2,0.8-30.1-2.1c-5.5-1.6-6.9-0.8-6.9,4.8c-0.1,11.5-0.1,23,0,34.5c0,5.1,1.5,6.7,6.7,6.4c4.7-0.2,9.4-1.5,14.1-1.8
				c10.5-0.6,18.7-5.8,26.2-12.5c2.2-2,4.2-4.3,6.4-6.3c1-0.9,2.4-1.4,3.6-2.1c0.3,1.4,0.8,2.8,0.9,4.2c0.2,2.5,0,5,0.1,7.5
				c0.1,5.8,1.3,7.1,7.1,7.1c9.3,0.1,18.7,0,28,0c7.5,0,8.4-0.9,8.4-8.3C358.8,268.3,358.7,236.1,358.7,204z"/>
			<path d="M596.7,204c0-17.3,0.5-34.7-0.2-52c-0.3-7.2,3-10.6,8.5-13.3c4.3-2.1,8.7-4,13.2-5.6c4.2-1.5,12.8,1.4,15.6,5.4
				c2.1,3.1,4.3,6.5,5.1,10.1c1.4,6.2,2.2,12.7,2.3,19.1c0.3,24.1,0.6,48.3-0.2,72.4c-0.3,9.1-0.7,18.7-5.8,27.2
				c-3.6,6-11.8,8.9-18.5,6.9c-5.6-1.7-10.8-3.4-15.7-6.8c-3.3-2.2-4.4-4.5-4.4-8.1C596.8,241,596.7,222.5,596.7,204z"/>
			<path d="M152.7,204c0-17.3,0.4-34.7-0.2-52c-0.2-6.4,2.2-10.1,7.1-12.6c4.8-2.5,9.9-4.7,15-6.3c5.2-1.6,17.3,3.7,18.8,11.2
				c2.1,9.9,4,19.6,3.9,29.8c-0.2,23.5,0.2,47-0.2,70.4c-0.1,6.8-1.5,13.8-3.9,20.1c-3.3,8.8-12.6,11.9-21.7,9.1
				c-5-1.6-9.9-3.2-14.4-6.1c-3.4-2.2-4.4-4.5-4.4-8.1C152.8,241,152.7,222.5,152.7,204z"/>
			<path d="M1441.2,232.8c5.7,0,11.3,0.1,17,0c3.6-0.1,5.2,1.2,5.1,4.9c-0.1,5.8,0.4,11.7-0.1,17.5c-1.2,12-10.3,20.3-22.2,20
				c-10.4-0.2-18.1-8.4-20.4-18.7c-1.4-6.3-1.6-12.4-1.8-18.7c-0.1-3.6,1.3-5.1,5-5.1C1429.5,232.9,1435.4,232.8,1441.2,232.8z"/>
			<path d="M436.7,176.9c0-6.5,0.1-13-0.1-19.5c-0.1-3.7,1.5-6.3,3.6-9.3c3.8-5.6,8.9-9,14.4-12.2c7.1-4.2,14.4-2.8,21.4-0.4
				c4.1,1.4,6.4,5.7,6.9,9.8c1,8.6,1.6,17.7-4.2,24.8c-4.6,5.6-7.9,12.4-15,16.2c-7.8,4.2-14.6,10.1-21.8,15.2
				c-1,0.7-2.9,1.6-3.4,1.2c-0.9-0.8-1.6-2.4-1.7-3.7C436.7,191.5,436.8,184.2,436.7,176.9C436.8,176.9,436.8,176.9,436.7,176.9z"/>
			<path d="M922.7,176.6c0-4.5,0.5-9-0.1-13.5c-1.6-13.4,6-20.9,16.5-26.4c3.3-1.7,6.9-3.1,10.5-3.9c5.9-1.3,11,1.8,15,5.2
				c2.6,2.2,3.8,6.9,4.3,10.6c1.1,9-1.5,17-6.6,24.7c-5.3,8.1-12.9,13-20.4,18.3c-4.7,3.3-9.5,6.6-14.5,9.4
				c-4.2,2.3-4.8,1.8-4.8-2.9C922.7,191,922.8,183.8,922.7,176.6z"/>
		</g>
	</g>
</g>
</svg>
