<?xml version="1.0" encoding="utf-8"?>
<!-- Generator: Adobe Illustrator 18.1.1, SVG Export Plug-In . SVG Version: 6.00 Build 0)  -->
<svg version="1.1" id="Layer_1" xmlns="http://www.w3.org/2000/svg" xmlns:xlink="http://www.w3.org/1999/xlink" x="0px" y="0px"
	 viewBox="-12.2 309 636.5 174" enable-background="new -12.2 309 636.5 174" xml:space="preserve">
<g id="PN2jsv_1_">
	<g>
		<path d="M276.3,312.3c7.8,0,15.7,0,23.6,0c0.4,0,0.7,0,1.1,0c0.4,0,0.5,0.1,0.5,0.6c0,0.1,0,0.2,0,0.2c0,6.4,0,12.8,0,19.3
			c0,0.8,0,0.8-0.7,0.8c-16.3,0-32.6,0-48.9,0c-0.2,0-0.3,0-0.5,0c-0.1,0-0.2-0.2-0.2-0.3c0-0.2,0-0.5,0-0.7c0-6.3,0-12.5,0-18.8
			c0-1,0-1,1.1-1C260.3,312.3,268.3,312.3,276.3,312.3z"/>
		<path d="M217,355.9c7.8,0,15.7,0,23.6,0c0.4,0,0.7,0,1.1,0c0.2,0,0.4,0.2,0.4,0.5c0,6.6,0,13.3,0,19.9c0,0.3-0.1,0.4-0.4,0.5
			c-0.4,0-0.7,0-1.1,0c-15.8,0-31.6,0-47.4,0c-0.4,0-0.7,0-1.1,0c-0.2,0-0.4-0.2-0.4-0.5c0-6.6,0-13.3,0-19.9c0-0.3,0.1-0.4,0.4-0.5
			c0.6,0,1.2,0,1.8,0C201.6,355.9,209.3,355.9,217,355.9z"/>
		<path d="M394.6,333.2c-8,0-16,0-24,0c-0.3,0-0.6,0-0.9,0c-0.1,0-0.2-0.2-0.2-0.3c0-0.3,0-0.6,0-0.9c0-6,0-11.9,0-17.9
			c0-0.3,0-0.6,0-0.9c0-0.3,0.6-0.8,0.9-0.8c0.2,0,0.5,0,0.7,0c15.9,0,31.9,0,47.8,0c0.2,0,0.3,0,0.5,0c0.3,0,0.4,0.1,0.5,0.3
			c0,0.2,0,0.5,0,0.7c0,6.3,0,12.5,0,18.8c0,1,0,1-1.1,1C410.7,333.2,402.7,333.2,394.6,333.2z"/>
		<path d="M335.7,376.7c-8,0-16,0-24,0c-0.3,0-0.6,0-0.9,0c-0.1,0-0.2-0.2-0.2-0.3c0-0.1,0-0.3,0-0.5c0-6.4,0-12.8,0-19.2
			c0-0.8,0-0.8,0.9-0.8c14.1,0,28.2,0,42.3,0c2,0,3.9,0,5.9,0c0.7,0,1.2,0.5,1.2,1.2c0,6.3,0,12.7,0,19c0,0.5-0.1,0.6-0.7,0.6
			C352,376.7,343.9,376.7,335.7,376.7z"/>
		<path d="M289.7,462.5c0,5.5,0,11,0,16.5c0,0.4-0.1,0.6-0.5,0.6c-1.9,0-3.8,0-5.7,0c-0.6,0-1.1-0.5-1.1-1.1c0-6.1,0-12.2,0-18.4
			c0-1.3,0-2.6,0-3.9c0-0.1-0.2-0.2-0.3-0.2c0,0-0.1,0.1-0.2,0.2c-0.1,0.8-0.6,1.4-0.9,2.1c-0.3,0.7-0.6,1.5-1.3,1.9
			c0,0.6-0.5,1-0.7,1.5c-0.2,0.6-0.5,1.2-0.8,1.7c-0.3,0.5-0.8,1-1.1,1.6c-0.3,0.8-0.7,1.5-1.1,2.3c-0.5,0.7-1,1.4-1.3,2.2
			c-0.3,0.7-0.7,1.4-1.2,2c-0.5,0.6-0.7,1.4-1.1,2c-0.4,0.7-0.7,1.4-1.2,2s-0.7,1.5-1.1,2.2c-0.2,0.4-0.5,0.8-0.7,1.3
			c-0.3-0.1-0.5,0.2-0.8,0.3c-0.4,0.1-0.9,0.1-1.3,0.1c-0.3,0-0.6,0-0.9,0c-1.1,0.2-1.7-0.5-2.2-1.2c-0.2-0.5-0.5-1.1-0.8-1.5
			c-0.4-0.5-0.7-1-0.9-1.5c-0.4-0.7-0.6-1.4-1.1-2c0.1-0.8-1-0.9-0.9-1.7c-0.6-0.7-0.7-1.7-1.4-2.4c0.1-0.6-0.4-0.7-0.7-1.1
			c-0.2-0.3-0.3-0.6-0.5-0.9c-0.2-0.6-0.5-1.2-0.8-1.7c-0.3-0.5-0.7-0.9-0.9-1.4c-0.3-0.6-0.6-1.3-1-1.9c-0.2-0.4-0.2-0.9-0.6-1.1
			c-0.5-0.2-0.4-0.7-0.6-1.1c-0.5-0.6-0.6-1.4-1.1-2.1c-0.2-0.3-0.3-0.8-0.7-1.1c-0.4-0.2-0.2-0.7-0.5-1c0,0-0.1,0-0.2,0
			c-0.1,0-0.2,0.1-0.2,0.2c0,0.5,0,1.1,0,1.6c0,7,0,14.1,0,21.1c0,0.6-0.1,0.7-0.6,0.7c-1.9,0-3.8,0-5.7,0c-0.5,0-1-0.5-1-1
			c0-0.2,0-0.5,0-0.7c0-10.5,0-21,0-31.5c0-0.3,0-0.6,0-0.9c0-0.2,0.1-0.4,0.4-0.4c2.7,0,5.4,0,8.2,0c0.4,0,0.4,0.3,0.5,0.5
			c1,1.2,1.4,2.8,2.3,4c0.9,1.3,1.5,2.7,2.2,4.1c0.4,0.7,1.1,1.4,1.3,2.2c0.2,0.7,0.7,1.3,1,2.1c0.1,0.4,0.6,0.6,0.9,1
			c0.2,0.3,0.3,0.8,0.5,1.2s0.3,0.8,0.6,1.1c0.4,0.4,0.2,1,0.8,1.3c0.5,0.2,0.4,0.7,0.6,1.1c0.4,0.6,0.6,1.3,1,1.9
			c0.2,0.4,0.2,0.9,0.6,1.1c0.5,0.2,0.4,0.7,0.6,1.1c0.3,0.5,0.5,1,0.7,1.5c0.2,0.5,0.6,0.5,1,0.1c0.5-0.5,0.6-1.3,1-1.8
			c0.3-0.4,0.2-0.8,0.6-1.2c0.3-0.2,0.2-0.8,0.7-1.1c0.5-0.2,0.3-0.8,0.6-1.1c0.5-0.6,0.5-1.5,1.1-2c-0.2-0.8,1-0.9,0.9-1.7
			c0.6-0.7,0.7-1.7,1.3-2.4c-0.2-0.9,1.1-1,1-1.9c0.6-0.5,0.6-1.4,1.1-2c0.3-0.3,0.2-0.9,0.6-1.1c0.5-0.2,0.4-0.7,0.6-1.1
			c0.3-0.5,0.6-1.1,0.8-1.7c0.2-0.5,0.5-0.9,0.8-1.2c0.4-0.3,0.4-0.7,0.6-1.1c0.1-0.2,0.2-0.4,0.3-0.5c0.3-0.7,0.7-1.3,1-2.1
			c0.8-0.3,1.6-0.1,2.4-0.2c0.8,0,1.7,0,2.5,0c0.9,0,1.8,0,2.7,0c1.4,0,1.4,0,1.4,1.3c0,0.9,0,1.8,0,2.7c0,0.8,0,1.7,0,2.5
			C289.7,455.3,289.7,458.9,289.7,462.5z"/>
		<path d="M181.8,445.2c1.1,0,2.3,0,3.4,0s2.3,0,3.4,0s2.3,0,3.4,0s2.3,0,3.4,0s2.3,0,3.4,0c1.1,0,2.2-0.2,3.3,0.2
			c0,1,0,2.1,0.1,3.2c0,1.1,0,2.3,0,3.4s0,2.3,0,3.4s0,2.3,0,3.4s0,2.3,0,3.4s0,2.3,0,3.4c0,4.5,0,8.9,0,13.4c0,0.8,0,0.8-0.7,0.8
			c-12.9,0-25.8,0-38.7,0c-0.2,0-0.3,0-0.5,0c-0.3,0-0.9-0.5-0.9-0.8c0-0.4,0-0.7,0-1.1c0-10.3,0-20.7,0-31c0-0.2,0-0.5,0-0.7
			c0-0.8,0-0.8,0.7-0.8C168.7,445.2,175.2,445.2,181.8,445.2z M182,472.8c4,0,8,0,12,0c0.9,0,0.9,0,0.9-0.8c0-6.7,0-13.4,0-20.2
			c0-0.8,0-0.8-0.9-0.8c-8,0-16,0-24,0c-0.9,0-0.9,0-0.9,0.8c0,6.7,0,13.4,0,20.2c0,0.8,0,0.8,0.9,0.8
			C174,472.8,178,472.8,182,472.8z"/>
		<path d="M511.5,445.2c6.6,0,13.1,0,19.7,0c0.6,0,0.6,0,0.6,0.6c0,10.9,0,21.7,0,32.6c0,0.7-0.5,1.2-1.2,1.2c-3.9,0-7.7,0-11.5,0
			c-8.6,0-17.2,0-25.8,0c-0.5,0-0.9,0-1.4,0c-0.3,0-0.8-0.6-0.8-0.9c0-0.2,0-0.3,0-0.5c0-10.7,0-21.4,0-32.2c0-0.2,0-0.5,0-0.7
			c0-0.1,0.2-0.2,0.3-0.2c0.5,0,0.9,0,1.4,0C498.9,445.2,505.2,445.2,511.5,445.2z M510.9,472.8c4.1,0,8.3,0,12.5,0
			c0.6,0,0.7-0.1,0.7-0.6c0-6.9,0-13.7,0-20.6c0-0.5-0.1-0.6-0.7-0.6c-8.2,0-16.3,0-24.5,0c-0.7,0-0.7,0-0.7,0.8c0,2.8,0,5.6,0,8.4
			c0,1.1,0,2.1,0,3.2s0,2.1,0,3.2s0,2.1,0,3.2c0,1,0,1.9,0.1,2.9c1,0.3,2.1,0.1,3.1,0.1c1.1,0,2.1,0,3.2,0c1.1,0,2.1,0,3.2,0
			C508.8,472.8,509.8,472.8,510.9,472.8z"/>
		<path d="M431.2,445.2c6,0,11.9,0,17.9,0c0.6,0,0.6,0,0.6,0.6c0,1.6,0,3.2,0,4.8c0,0.4-0.1,0.5-0.5,0.5c-3.6,0-7.3,0-10.9,0
			c-5.8,0-11.6,0-17.5,0c-0.5,0-0.6,0.1-0.6,0.7c0,2.1,0,4.2,0,6.3c0,0.7,0,0.7,0.8,0.7c4.1,0,8.3,0,12.5,0c5.1,0,10.3,0,15.4,0
			c0.8,0,0.8,0,0.8,0.7c0,6.3,0,12.7,0,19c0,0.6-0.5,1.1-1.1,1.1c-0.2,0-0.5,0-0.7,0c-11.2,0-22.5,0-33.8,0c-1.3,0-1.7-0.6-1.7-1.7
			c0.1-1.5,0-3,0-4.5c0-0.5,0.1-0.6,0.7-0.6c9,0,18,0,27,0c0.6,0,1.2,0,1.8,0c0.3,0,0.5-0.1,0.5-0.4c0-2.3,0-4.5,0-6.8
			c0-0.5-0.5-1-1-1c-0.6,0-1.2,0-1.8,0c-8.8,0-17.7,0-26.5,0c-0.6,0-0.6,0-0.6-0.6c0-6.1,0-12.2,0-18.4c0-0.4,0.1-0.5,0.5-0.5
			C419.1,445.2,425.2,445.2,431.2,445.2z"/>
		<path d="M280.6,358.4c0-1.2,0-2.4,0-3.6c0-1.1,0-2.3,0-3.4c0-1.2,0-2.4,0-3.6s0-2.4,0-3.6c0-1.2-0.2-2.4,0.1-3.6
			c1.1,0,2.2-0.1,3.4-0.1c1.2,0,2.4,0,3.6,0c1.2,0,2.4,0,3.6,0c1.1,0,2.3,0,3.4,0c1.2,0,2.4,0,3.6,0c0.7,0,1.4,0,2,0
			c1.2,0,1,0.1,1,0.9c0,2.1,0,4.2,0,6.3c0,9.4,0,18.9,0,28.3c0,0.6-0.1,0.7-0.6,0.7c-6.6,0-13.1,0-19.7,0c-0.5,0-0.6-0.1-0.6-0.7
			C280.6,370.1,280.6,364.2,280.6,358.4z"/>
		<path d="M369.5,358.5c0-5.7,0-11.5,0-17.2c0-0.8,0-0.8,0.9-0.8c6.3,0,12.7,0,19,0c0.9,0,0.9,0,0.9,0.8c0,2.3,0,4.7,0,7
			c0,9,0,18,0,27c0,0.4,0,0.7,0,1.1c0,0.2-0.2,0.4-0.5,0.4c-6.6,0-13.3,0-19.9,0c-0.3,0-0.4-0.1-0.5-0.4c0-0.5,0-1.1,0-1.6
			C369.5,369.3,369.5,363.9,369.5,358.5z"/>
		<path d="M191.8,330.5c0-5.7,0-11.5,0-17.2c0-0.8-0.2-0.9,1-0.9c6.1,0,12.2,0,18.3,0c0.2,0,0.5,0,0.7,0c0.3,0,0.8,0.6,0.8,0.9
			c0,0.2,0,0.3,0,0.5c0,11.4,0,22.8,0,34.2c0,0.6-0.1,0.7-0.6,0.7c-6.6,0-13.1,0-19.7,0c-0.5,0-0.6-0.1-0.6-0.7
			C191.8,342.1,191.8,336.3,191.8,330.5z"/>
		<path d="M242.1,330.5c0,5.7,0,11.5,0,17.2c0,0.9,0,0.9-0.8,0.9c-6.4,0-12.8,0-19.2,0c-0.8,0-0.8,0-0.8-0.9c0-11.2,0-22.5,0-33.7
			c0-0.2,0-0.5,0-0.7c0-0.4,0.6-1,1-1c1.1,0,2.1,0,3.2,0c5.1,0,10.1,0,15.2,0c1.5,0,1.5,0,1.5,1.6
			C242.1,319.5,242.1,325,242.1,330.5z"/>
		<path d="M340,330.4c0-5.7,0-11.5,0-17.2c0-0.8,0-0.8,0.9-0.8c6.3,0,12.5,0,18.8,0c0.6,0,1.1,0.5,1.2,1c0,0.3,0,0.6,0,0.9
			c0,10.9,0,21.9,0,32.8c0,0.4,0,0.7,0,1.1c0,0.2-0.2,0.3-0.5,0.3c-6.6,0-13.3,0-19.9,0c-0.3,0-0.4-0.1-0.5-0.4c0-0.5,0-1.1,0-1.6
			C340,341.2,340,335.8,340,330.4z"/>
		<path d="M399.4,358.5c0-5.7,0-11.5,0-17.2c0-0.8,0-0.8,0.7-0.8c6.3,0,12.7,0,19,0c0.6,0,1.1,0.5,1.1,1.1c0,0.2,0,0.5,0,0.7
			c0,10.9,0,21.9,0,32.8c0,1.5-0.2,1.7-1.6,1.7c-6.2,0-12.4,0-18.6,0c-0.6,0-0.7,0-0.7-0.6C399.4,370.2,399.4,364.3,399.4,358.5z"/>
		<path d="M251.1,358.6c0-5.7,0-11.5,0-17.2c0-0.8-0.2-0.9,1-0.9c6.1,0,12.2,0,18.3,0c0.2,0,0.5,0,0.7,0c0.3,0,0.8,0.6,0.8,0.9
			c0,0.2,0,0.3,0,0.5c0,11.2,0,22.3,0,33.5c0,0.1,0,0.2,0,0.2c0,0.7-0.5,1.2-1.3,1.2c-2,0-4.1,0-6.1,0c-4.1,0-8.3,0-12.4,0
			c-1.2,0-1-0.1-1-0.9C251.1,370,251.1,364.3,251.1,358.6z"/>
		<path d="M571.7,462.3c0-5.5,0-11,0-16.5c0-0.6,0-0.6,0.6-0.6c1.1,0,2.3,0,3.4,0c0.6,0,1.2,0.1,1.8,0.1c0.4,0.6,1.1,0.7,1.6,1.1
			c0.1,0,0.1,0.1,0.2,0.2c0.4,0.4,0.9,0.8,1.3,1.3c0.4,0.6,1.2,0.5,1.6,1.1c0.3,0.5,0.8,0.9,1.3,1.3c0.5,0.5,1.2,0.5,1.6,1.1
			c0.3,0.5,0.8,1,1.3,1.3c1.1,0.5,1.7,1.4,2.5,2.1c0.5,0.5,1.2,0.5,1.6,1.1c0.3,0.5,0.8,1,1.3,1.3c1.1,0.5,1.8,1.5,2.7,2.2
			c0.5,0.4,1.1,0.6,1.6,1.1c0.5,0.5,1,1,1.4,1.5s1.2,0.5,1.6,1.1c0.4,0.5,0.9,1.2,1.4,1.4c1,0.4,1.6,1.3,2.4,2
			c0.5,0.5,1.4,0.6,1.7,1.3c0,0,0.1,0.1,0.2,0.1c0.1,0,0.2-0.1,0.2-0.2c0-0.5,0-0.9,0-1.4c0-6.5,0-13,0-19.5c0-0.4,0-0.7,0-1.1
			c0-0.4,0.1-0.5,0.5-0.5c2,0,3.9,0,5.9,0c0.8,0,0.8,0,0.8,0.9c0,10.7,0,21.3,0,31.9c0,0.2,0,0.3,0,0.5c0,0.6-0.5,1.1-1.1,1.2
			c-1.1,0-2.3,0-3.4,0c-0.3,0-0.7,0-0.8-0.1c-0.3-0.4-0.9-0.2-1.1-0.6c0-0.1-0.1-0.1-0.2-0.2c-0.7-0.6-1.2-1.4-2.2-1.9
			c-0.8-0.4-1.3-1.2-2-1.8c-0.4-0.3-0.9-0.5-1.2-0.8c-0.4-0.3-0.7-0.6-1-1c-0.4-0.4-0.7-0.9-1.1-1.1c-1.1-0.5-1.7-1.4-2.5-2.1
			c-0.5-0.5-1.2-0.5-1.6-1.1c-0.4-0.5-0.9-1.2-1.4-1.4c-1-0.4-1.5-1.2-2.2-1.8c-0.4-0.3-0.7-0.9-1.2-1c-0.7-0.2-0.9-0.7-1.4-1.1
			c-0.4-0.3-0.7-0.9-1.1-1.1c-1.1-0.4-1.6-1.2-2.3-2c-0.5-0.5-1.2-0.5-1.6-1.1c-0.4-0.6-0.9-1.1-1.4-1.4c-0.7-0.4-1.3-0.9-1.9-1.5
			c0,0-0.1-0.1-0.2,0c-0.1,0-0.2,0.1-0.2,0.2c0,0.5,0,0.9,0,1.4c0,6.5,0,13,0,19.5c0,0.4,0,0.7,0,1.1c0,0.3-0.5,0.9-0.8,0.9
			c-2,0-4.1,0-6.1,0c-0.1,0-0.3-0.2-0.3-0.3c0-0.3,0-0.6,0-0.9C571.7,473.1,571.7,467.7,571.7,462.3z"/>
		<path d="M310.5,330.4c0-5.7,0-11.5,0-17.2c0-0.8,0-0.8,0.7-0.8c6.3,0,12.7,0,19,0c0.6,0,0.7,0.1,0.7,0.6c0,0.5,0,1.1,0,1.6
			c0,10.7,0,21.3,0,31.9c0,0.6,0,1.2,0,1.8c0,0.2-0.2,0.4-0.5,0.4c-6.5,0-13,0-19.5,0c-0.3,0-0.4-0.1-0.5-0.4c0-0.5,0-1.1,0-1.6
			C310.5,341.2,310.5,335.8,310.5,330.4z"/>
		<path d="M351.4,445.2c5.7,0,11.5,0,17.2,0c0.8,0,0.8,0,0.8,0.9c0,6.3,0,12.5,0,18.8c0,0.6-0.5,1.2-1,1.2c-0.6,0-1.2,0-1.8,0
			c-8.1,0-16.1,0-24.2,0c-0.5,0-1.1,0-1.6,0c-0.2,0-0.4,0.2-0.4,0.5c0,4.1,0,8.3,0,12.4c0,0.6-0.1,0.7-0.6,0.7c-1.9,0-3.8,0-5.7,0
			c-0.5,0-1-0.5-1-1c0-0.2,0-0.3,0-0.5c0-10.8,0-21.6,0-32.4c0-0.6,0-0.7,0.6-0.7C339.7,445.2,345.6,445.2,351.4,445.2z M351,459.7
			c1,0,2,0,2.9,0c0.8,0,1.7,0,2.5,0c0.9,0,1.8,0,2.7,0c0.8,0,1.6,0,2.5-0.1c0.4-0.9,0.1-1.8,0.2-2.7c0-0.8,0-1.7,0-2.5
			c0-0.9,0-1.8,0-2.7c0-0.7,0-0.7-0.8-0.7c-4.2,0-8.5,0-12.7,0c-0.8,0-1.7,0-2.5,0c-0.9,0-1.8,0-2.7,0c-0.8,0-1.6,0-2.5,0.1
			c-0.4,0.9-0.1,1.8-0.2,2.7c0,0.8,0,1.7,0,2.5c0,0.9,0,1.8,0,2.7c0,0.7,0,0.7,0.8,0.7C344.5,459.7,347.8,459.7,351,459.7z"/>
		<path d="M117.9,462.4c0,3.8,0,7.5,0,11.3c0,1,0,2,0,2.9c0,2.8,0,2.9-0.4,2.9c-1,0-2,0-2.9,0s-2,0-2.9,0c-0.5,0-1-0.5-1-1
			c0-1.9,0-3.8,0-5.7c0-1.4,0-2.7,0-4.1c-0.1-1.4,0.2-2.8-0.2-4.2c-1.4,0-2.7,0-4.1,0c-1.4,0-2.7,0-4.1,0c-5.1,0-10.3,0-15.4,0
			c-0.7,0-0.7,0-0.7,0.8c0,4.3,0,8.6,0,12.9c0,0.2,0,0.4-0.1,0.7c0,0.2-0.7,0.6-0.9,0.6c-1.9,0-3.8,0-5.7,0c-0.6,0-1.1-0.5-1.1-1.1
			c0-3.3,0-6.6,0-10c0-7.4,0-14.8,0-22.2c0-0.2,0-0.5,0-0.7c0-0.4,0.1-0.5,0.5-0.5c2,0,4.1,0,6.1,0c1,0,1,0,1,1.1
			c0,3.8,0,7.5,0,11.3c0,1.1,0,1.2,1,1.2c7.5,0,15,0,22.4,0c1,0,1,0,1-1.1c0-2.2,0-4.4,0-6.6c0-1,0-2,0-2.9c0-1-0.2-1.9,0.1-2.9
			c1,0,1.9,0,2.9-0.1c1,0,2,0,2.9,0c0.3,0,0.6,0,0.9,0c0.1,0,0.3,0.1,0.3,0.2c0,0.2,0,0.5,0,0.7C117.9,451.6,117.9,457,117.9,462.4z
			"/>
		<path d="M19.9,445.2c6.3,0,12.7,0,19,0c0.5,0,0.6,0.1,0.6,0.5c0,0.9,0,1.8,0,2.7c0,0.9,0.2,1.8-0.2,2.7c-0.8,0-1.7,0-2.5,0
			c-0.9,0-1.8,0-2.7,0c-3.4,0-6.8,0-10.2,0c-0.8,0-0.8,0-0.8,0.7c0,4.1,0,8.3,0,12.4c0,3.5,0,6.9,0,10.4c0,0.8,0,1.7,0,2.5
			c0,0.8,0.2,1.6-0.1,2.4c-0.7,0-1.5,0.1-2.2,0.1c-0.8,0-1.7,0-2.5,0c-2.2,0.1-2.4-0.1-2.4-2.3c0-8.5,0-17,0-25.6
			c0-0.6,0-0.7-0.6-0.7c-4.7,0-9.4,0-14,0c-0.2,0-0.5,0-0.7,0c-0.4,0-0.5-0.1-0.5-0.5c0-0.9,0-1.8,0-2.7c0-0.8,0-1.7,0-2.5
			c0.8-0.5,1.7-0.1,2.6-0.2c0.8-0.1,1.7,0,2.5,0C10,445.2,15,445.2,19.9,445.2z"/>
	</g>
</g>
</svg>
