<?xml version="1.0" encoding="utf-8"?>
<!-- Generator: Adobe Illustrator 18.1.1, SVG Export Plug-In . SVG Version: 6.00 Build 0)  -->
<svg version="1.1" id="Layer_1" xmlns="http://www.w3.org/2000/svg" xmlns:xlink="http://www.w3.org/1999/xlink" x="0px" y="0px"
	 viewBox="0 0 1656.8 823.2" enable-background="new 0 0 1656.8 823.2" xml:space="preserve">
<g id="_x31_Ktrhf_1_">
	<g>
		<g>
			<path d="M29,287.2c19.3,0,38.7,0.1,58,0.1c511.3,0,1022.5,0,1533.8,0c2.2,0,4.5,0,6.7,0c0.1,0.6,0.1,1.2,0.2,1.8
				c-1.8,0.3-3.7,0.7-5.5,0.7c-32.3,0-64.7,0-97,0c-496.9,0-993.9,0-1490.8,0c-1.8,0-3.6,0.3-5.4,0.4C29,289.2,29,288.2,29,287.2z"
				/>
			<path d="M1495,809.2c-8.5-9.1-17-18.3-25.4-27.4c-10-10.9-19.9-21.9-29.9-32.9c-1.1-1.2-2.1-2.6-3.9-4.8
				c-0.4,2.5-0.8,3.5-0.8,4.5c0,13.3,0,26.6,0,40c0,2.3,0.3,4.7,0.6,6.9c1,6.5,2.8,8.1,9.3,8.9c1.2,0.2,2.4,0.9,3.6,1.3
				c-0.1,0.4-0.3,0.9-0.4,1.3c-10,0-19.9,0-29.9,0c-0.1-0.4-0.2-0.8-0.4-1.3c1.1-0.5,2.1-1.2,3.2-1.4c5.9-0.8,8.6-2.8,8.7-8.3
				c0.3-18.3,0.3-36.6,0.1-54.9c-0.1-5.1-3.3-8.1-8.4-9c-1.7-0.3-3.3-0.7-4.9-1.1c0.2-1.1,0.2-1.7,0.3-1.7
				c6.4-0.3,12.7-0.6,19.1-0.6c0.8,0,1.6,1.5,2.4,2.4c17.2,18.8,34.4,37.6,51.6,56.3c0.3,0.3,0.8,0.6,1.8,1.2
				c0.2-1.7,0.4-3.1,0.4-4.5c0-12.5,0-25,0-37.5c0-11.4-0.8-12.4-11.8-15.2c-0.6-0.1-1.1-0.6-1.7-0.9c1.9-2.4,13.1-3.3,25.7-2.2
				c1.1,0.1,2.1,0.9,3.1,1.4c-0.1,0.4-0.2,0.8-0.3,1.2c-0.9,0.2-1.8,0.5-2.7,0.6c-5.1,0.5-7.3,3.5-7.4,8.3c-0.2,7.5-0.2,15-0.2,22.5
				c0,13.7,0,27.3-0.1,41c0,1.9-0.5,3.9-0.8,5.8C1495.7,809.2,1495.3,809.2,1495,809.2z"/>
			<path d="M1293,809.2c-9.8-3-18.7-7.4-25.1-15.9c-12.6-16.5-11.1-39.6,3.6-54.7c14-14.4,36.6-16.2,52.7-3.7
				c13.4,10.4,18.9,24.5,15.4,41.1c-3.6,17-13.9,28.4-31.4,32.4c-0.8,0.2-1.5,0.6-2.3,0.9C1301.7,809.2,1297.3,809.2,1293,809.2z
				 M1328.1,771.5c-0.2-10.7-2.8-21.3-9.8-30.4c-12.2-15.8-33.6-13.4-42.3,4.6c-7.4,15.4-4.2,38.3,7.3,51.2
				c10.7,12.1,28.4,11.3,37.9-1.8C1326.2,788.2,1327.7,780.2,1328.1,771.5z"/>
			<path d="M322,809.2c-8.8-2.8-16.9-6.5-23.2-13.7c-12.4-14.2-13.8-34.4-3.4-50.5c9.8-15.1,28.5-22,45.4-16.7
				c17.7,5.5,29.7,22.5,28.9,40.9c-0.8,18.8-13.6,34.6-31.6,39c-0.8,0.2-1.5,0.6-2.2,1C331.3,809.2,326.7,809.2,322,809.2z
				 M358.3,771.5c-1.4-12.4-4.5-23.5-12.7-32.5c-11.8-13-31-10.5-39.4,4.8c-8.6,15.5-5.8,39.7,6.2,52.9c12.1,13.4,31.9,11.2,39.9-5
				C355.2,785.5,356.3,778.3,358.3,771.5z"/>
			<path d="M174,809.2c-3-0.9-6-1.7-9-2.8c-15.8-5.7-25.3-19.7-26.1-36.7c-1-20.6,12.2-34.1,25.6-39.6c14.4-5.9,28.4-3.3,42.2,1.9
				c0.6,0.2,1.5,0.6,1.5,1c0.6,5.3,1,10.5,1.5,15.8c-0.6,0.1-1.2,0.2-1.8,0.3c-0.6-0.9-1.4-1.6-1.7-2.6c-2.6-10.6-11.1-16.2-23.5-16
				c-16.9,0.2-29,10.8-31.5,28.8c-2.2,15.8,2.1,29.8,15.4,39.9c14.6,11,34.7,7,39.9-11.4c0.2-0.6,0.6-1.1,1.4-2.5
				c0.7,1.6,1.1,2.5,1.4,3.3c0.1,0.3-0.1,0.6-0.1,1c-1.4,14.5-2.7,15.9-17.2,18.5c-1.1,0.2-2.2,0.7-3.2,1
				C184,809.2,179,809.2,174,809.2z"/>
			<path d="M897,809.2c-6-2.3-12.6-3.6-17.9-7c-14.7-9.3-19.6-23.8-17.6-40.2c2.2-18,13.8-28.7,30.6-33.7
				c12.5-3.7,24.7-0.9,36.5,3.7c0.8,0.3,2.1,1.1,2.1,1.7c0.5,5,0.8,10,1.1,15.1c-0.4,0.2-0.9,0.3-1.3,0.5c-0.6-0.7-1.7-1.4-1.9-2.2
				c-3.4-15.7-20.3-18.7-32.5-15.2c-15.2,4.4-24,18.3-23.2,36c0.9,17.9,11.6,32.5,26.7,36.5c12.6,3.3,23.8-2.4,28.5-14.7
				c0.5-1.3,1.1-2.5,1.7-3.7c0.6,0.1,1.2,0.2,1.8,0.4c-0.2,2.2-0.3,4.5-0.6,6.7c-1.8,11.6-1.8,11.6-13.2,14.2c-2,0.5-4,1.2-6,1.9
				C907,809.2,902,809.2,897,809.2z"/>
			<path d="M1059.4,64.6c-0.5,21.1-1,42.2-1.4,63.3c-0.4,19-0.7,38-1,57c0,3,0,6,0.5,9c1.9,12.5,6.9,16.9,19.6,17.4
				c2.5,0.1,5,0,8.1,0c0.1,2.7,0.2,5,0.4,7.5c-24.3,0-48.1,0-72.1,0c0-2.2,0-4.4,0-6.9c4.1-0.5,8-0.9,11.9-1.5
				c8.1-1.4,14.3-6,16.4-13.7c2.5-9.2,4.4-18.8,4.8-28.4c1.5-37.5,2.2-74.9,3.2-112.4c0.1-3-0.1-6-0.4-9
				c-1.2-10.6-5.3-14.7-15.9-15.9c-2.6-0.3-5.3-0.5-8.2-0.8c0-2.3,0-4.3,0-6.7c1.1-0.1,2.3-0.3,3.4-0.3c13.5,0,27,0.1,40.5-0.1
				c2.9,0,4.4,0.9,5.7,3.5c23.6,49.4,47.3,98.8,71,148.2c0.7,1.5,1.5,2.9,2.6,5c6.9-13.9,13.5-27.1,19.9-40.4
				c18.1-37.7,36.1-75.4,54.3-113c0.7-1.4,2.7-3.1,4.1-3.1c14.5-0.2,29-0.1,43.5-0.1c0.5,0,0.9,0.3,1.5,0.4c0,2.1,0,4.2,0,6.6
				c-3.7,0.3-7.1,0.4-10.5,0.8c-9.2,1-13.2,4.6-13.8,14c-0.6,8.8-0.5,17.7-0.2,26.5c1.1,38.6,2.4,77.3,3.6,115.9
				c0.6,18.6,5.3,23.2,24.2,23.9c1.8,0.1,3.6,0.2,5.8,0.3c0,2.4,0,4.6,0,7.1c-28.8,0-57.5,0-86.6,0c0-2.2,0-4.4,0-7.5
				c4.1,0,8.2,0.2,12.3,0c10.2-0.6,15.3-5,15.5-15.2c0.4-19.3,0.1-38.6-0.1-57.9c-0.3-25.3-0.8-50.6-1.2-76c0-1.3-0.1-2.5-1.2-4.1
				c-2.7,5.6-5.4,11.2-8.1,16.8c-19.9,41.6-39.9,83.1-59.8,124.8c-2.8,5.8-4.7,12.1-7.4,18c-0.7,1.6-2.7,3.7-4.1,3.7
				c-1.5,0-3.8-1.8-4.5-3.3c-9.2-19.2-17.8-38.7-27.2-57.8c-15.2-31.1-30.9-62-46.4-92.9c-0.5-1-1.1-1.9-1.7-2.9
				C1060,64.3,1059.7,64.4,1059.4,64.6z"/>
			<path d="M353.1,543.5c0,2.4,0,4.3,0,6.6c-25.3,0-50.4,0-75.9,0c0-2.1,0-4.1,0-6.7c1.7-0.1,3.5-0.2,5.2-0.3
				c13.9-0.5,18.8-5.4,18.9-19.4c0.1-19,0-38,0-57c0-3,0-5.9,0-9.2c-36.9,0-73.3,0-110.3,0c0,1.8,0,3.5,0,5.3c0,19.8,0,39.7,0,59.5
				c0,15.5,4.6,20.2,20.1,20.9c1.3,0.1,2.6,0.2,3.9,0.3c1.8,6.3,1.4,7-4.5,7c-22.2,0-44.3,0-66.5,0c-1.5,0-2.9-0.2-4.7-0.3
				c0-2.2,0-4.1,0-6.5c3.8-0.4,7.7-0.6,11.6-1.4c7.9-1.5,11.5-5.4,12.7-13.3c0.4-2.5,0.3-5,0.3-7.5c0-44.7,0-89.3,0-134
				c0-2.5,0-5-0.5-7.5c-1.4-8.3-5.1-11.8-13.5-13c-3.4-0.5-6.9-0.8-10.3-1.2c-1.3-6.7-1.1-6.9,5.3-6.9c21.7,0.1,43.3,0.1,65,0
				c6.2,0,6.3,0,5.4,6.8c-3.3,0.4-6.8,0.7-10.2,1.2c-9.3,1.4-13.9,5.7-14,15.2c-0.4,20.8-0.1,41.6-0.1,62.8c36.6,0,73,0,110,0
				c0.1-1.4,0.2-3,0.2-4.6c0-18,0-36,0-54c0-2.2,0-4.3-0.3-6.5c-1.1-7.4-5.2-11.6-12.6-12.8c-3.6-0.6-7.2-0.8-11.3-1.3
				c0-2,0-4.1,0-6.5c25.1,0,50.2,0,75.9,0c0.1,2,0.2,4.1,0.4,6.4c-4.1,0.5-7.9,0.8-11.6,1.4c-7.5,1.1-11.5,5.1-12.7,12.6
				c-0.4,2.6-0.5,5.3-0.5,8c0,44,0,88,0,132c0,0.2,0,0.3,0,0.5c0,18.1,3.8,22.1,21.7,22.9C350.9,543.2,351.7,543.4,353.1,543.5z"/>
			<path d="M425.8,23.3c5.2,0,10.5,0,15.8,0c22.8,0,45.6-0.2,68.5-0.1c12.1,0,23.9,2.1,34.8,7.6c30,15,35.2,55.1,9.7,76.9
				c-6.6,5.6-14.7,9.4-22.5,14.4c1.7,2.6,3.8,6,6.1,9.2c11.2,16.6,22.3,33.2,33.7,49.6c3.3,4.8,7,9.3,10.9,13.7
				c8.1,9.2,17.1,16.9,30.6,16.9c0,2.7,0,4.9,0,7.1c-8.9,0-17.6,0-26.4,0c-2.2,0-4.4-0.4-6.5,0.1c-9.1,2.3-14.4-1.9-20-8.7
				c-19.9-24.5-36.2-51.5-52.9-78.1c-2.5-4-4.9-6-9.8-5.6c-5.9,0.5-12,0.1-18.5,0.1c-0.1,2-0.3,3.7-0.3,5.5c0,19.7,0,39.3,0,59
				c0,15.1,4.8,20,19.9,20.5c1.6,0.1,3.3,0.3,5.1,0.4c0,2.5,0,4.8,0,7.1c-26.1,0-52,0-77.9,0c-1.7-6.8-1.4-7.2,5.1-7.3
				c13.5-0.2,19.9-6.6,19.9-20c0-46.7,0-93.3,0-140c0-2.8-0.3-5.7-0.8-8.4c-1.2-6.5-5.2-10.3-11.6-11.5c-2.6-0.5-5.3-0.7-7.9-0.9
				C424.7,30.2,424.7,30.2,425.8,23.3z M478.9,33.9c0,26.8,0,53.1,0.1,79.4c0,1,1.8,2.9,2.8,3c5.3,0.6,10.6,1.1,15.9,0.9
				C526,115.7,542.8,97,541,68.8c-0.8-12.2-5.4-22.8-16.3-29.4C510.5,30.7,495,31.3,478.9,33.9z"/>
			<path d="M569.6,554.5c-53.4,1-100-45.6-98.2-101.8c1.6-51.2,41.6-97.9,98.6-97.8c53.5,0.1,98,44.9,97.9,98.7
				C667.9,509.9,624.4,554.5,569.6,554.5z M501.7,447c-0.1,22.4,6.1,45.6,17.6,64.7c7.4,12.4,16.9,22.7,30.3,28.9
				c28.4,13.2,61.3,1.2,76.7-28.2c10.7-20.3,13.3-42.1,10.6-64.5c-2.9-24-10.9-46-27.3-64.2c-26.4-29.2-70.5-25.8-92.4,6.8
				C505.7,407.6,501.9,426.8,501.7,447z"/>
			<path d="M850.1,30.3c0-2.3,0-4.4,0-6.8c21,0,41.9,0,63.2,0c0,2.2,0,4.3,0,6.7c-1.2,0.2-2.1,0.4-3.1,0.5
				c-12.3,1.2-16.8,5.5-18,17.8c-0.5,5.3-0.8,10.6-0.9,16c-0.1,31.2,0.1,62.3-0.1,93.5c-0.1,22.1-7.9,40.8-26.9,53.4
				c-10.2,6.8-21.6,10.1-33.7,11.3c-15.1,1.5-30,0.9-44.5-3.8c-25.4-8.2-38.6-26.6-42.1-52.4c-0.9-6.7-1.1-13.6-1.1-20.4
				c-0.1-31.3,0-62.6,0-94c0-15.9-4.4-20.6-20.1-21.4c-1.5-0.1-3,0-4.8,0c0-2.5,0-4.7,0-7.2c25.9,0,51.7,0,77.8,0c0,2.2,0,4.2,0,6.8
				c-3.4,0.3-6.8,0.5-10.2,0.9c-9.3,1-13.8,5.5-14.6,14.7c-0.4,5-0.4,10-0.4,15c0.1,30.8,0,61.6,0.3,92.5
				c0.1,11.6,2.4,22.8,7.9,33.2c8.2,15.6,21.7,23.3,38.7,24.4c8.7,0.6,17.8,0,26.2-2.1c18.2-4.4,27.5-17.6,31-35.3
				c1-5,1.4-10.2,1.4-15.4c0-34.2-0.1-68.3-0.2-102.5c0-0.7-0.1-1.3-0.1-2c-0.5-18.4-3.6-21.7-21.6-23.1
				C853,30.6,851.7,30.4,850.1,30.3z"/>
			<path d="M1385.9,30.3c0-2.4,0-4.4,0-7c2.8,0,5.5,0,8.3,0c21.3,0,42.6-0.2,64-0.1c13.5,0.1,26.3,3.1,38.6,8.9
				c35.3,16.8,37.1,63.2,10.6,86.4c-16.3,14.3-35.2,18.4-56.5,16.2c0-2.9,0-5.8,0-8.7c3.3,0,6.4,0,9.5,0
				c13.5-0.1,23.4-6.3,29.4-18.1c8.4-16.6,8.5-33.8,1.3-50.7c-8.6-20.3-31.8-28.3-52.9-23.5c0,1.7,0,3.5,0,5.3c0,50,0,100,0,149.9
				c0,0.8,0,1.7,0,2.5c0.3,14.4,5.3,19.5,19.6,20c1.8,0.1,3.6,0.2,5.9,0.3c0,2.4,0,4.6,0,7.2c-25.9,0-52,0-78.3,0c0-2.3,0-4.5,0-6.9
				c4.3-0.5,8.4-0.7,12.5-1.5c7.7-1.5,11.2-5.4,12.2-13.1c0.3-2,0.3-4,0.3-6c0-45.3,0-90.6,0-135.9c0-2.7,0-5.3-0.3-8
				c-1.2-10.9-5.6-15.3-16.5-16.4C1391,30.8,1388.7,30.5,1385.9,30.3z"/>
			<path d="M1123.3,445.2c13.9,0,27.6,0.5,41.2-0.2c9-0.4,14.7-6.8,16.5-16.2c0.4-2.1,0.7-4.2,1.1-6.5c1.8,0,3.2,0,5.2,0
				c0,20.1,0,40.1,0,60.5c-1.4,0-3.1,0-4.8,0c-0.7-4.6-1.1-9-2-13.4c-1.3-6.6-5.4-10.8-12.2-11.4c-7.8-0.7-15.6-0.7-23.4-0.9
				c-7.1-0.1-14.2,0-21.1,0c-0.4,0.8-0.7,1.1-0.7,1.4c0.2,21.3-0.1,42.7,0.8,63.9c0.5,13.1,6.2,18.2,19.3,18.6
				c12.3,0.3,24.6,0.1,36.9-0.6c18.4-1,29.3-11.8,35.5-28.3c2-5.3,2.1-5.2,8.4-3.4c-1.4,4.9-2.9,9.7-4.3,14.6
				c-2,7.4-4.1,14.8-5.6,22.2c-0.8,3.6-2.2,4.9-5.9,4.8c-32.5-0.3-65-0.4-97.5-0.5c-11.5,0-23,0.3-34.5,0.4c-2,0-3.9,0-6.2,0
				c0-2.6,0-4.7,0-6.8c4.5-0.5,8.8-0.8,13-1.4c6.1-0.9,10.1-4.4,11.1-10.5c0.8-5.1,1.5-10.2,1.5-15.4c0.1-41.7,0.1-83.3,0.1-125
				c0-20.8-2.4-23.3-23.1-24.9c-0.8-0.1-1.6-0.2-2.6-0.3c0-2.2,0-4.1,0-6.4c1-0.2,2.1-0.5,3.2-0.5c42,0,84,0,126-0.1
				c3.9,0,5.3,0.9,5.2,5c-0.3,10.5-0.2,21,0,31.5c0.1,3.7-1,5.7-5.3,5.5c-0.3-0.9-0.8-1.9-1.1-2.9c-4.1-19.3-13.3-28.2-32.9-29.5
				c-13.7-0.9-27.6-0.2-41.8-0.2C1123.3,393.9,1123.3,419.3,1123.3,445.2z"/>
			<path d="M138.8,59.3c1-14.6,2-29.1,3-43.5c3.4-1,5.7-0.9,7.9,2.3c1.3,2,4.2,3.3,6.6,4c3.3,0.9,6.9,1,10.4,1
				c41.3,0.1,82.7,0.1,124,0c3.6,0,7.4-0.2,10.9-1.1c2.8-0.7,5.3-2.6,7.8-4c2.1-1.2,4.2-2.4,6.3-3.6c0.4,0.4,0.8,0.9,1.2,1.3
				c-0.4,7.6-0.7,15.2-1.1,22.8c-0.3,5-0.6,10-0.8,15c-0.3,6.8-0.3,6.8-8.1,6.3c-0.3-2.7-0.6-5.6-0.8-8.5c-0.7-10.1-4.9-14.8-15-16
				c-2.1-0.3-4.3-0.4-6.5-0.4c-14,0-28,0-42.5,0c-0.1,2.1-0.3,3.8-0.3,5.6c0,50,0,100,0,150c0,1.3,0,2.7,0.1,4
				c0.6,11,5.3,15.9,16.4,16.9c2.8,0.2,5.6,0.3,8.6,0.4c0,2.6,0,4.9,0,7.2c-26,0-51.7,0-77.9,0c0-2,0-4.2,0-6.9
				c4.3-0.5,8.7-0.9,13.1-1.6c6.3-1.1,10-5.1,11.1-11.3c0.5-2.4,0.7-5,0.7-7.4c0-50.3,0-100.7,0.1-151c0-4.9-1.5-6.1-6.2-6
				c-12.3,0.4-24.7-0.2-37,0.4c-14.7,0.7-19.1,4.7-22.9,19C146.2,60.6,146.2,60.6,138.8,59.3z"/>
			<path d="M820,550.3c0-2.5,0-4.4,0-6.6c4.3-0.5,8.4-0.8,12.5-1.5c6.5-1,10.4-5,11.5-11.4c0.6-3.1,0.8-6.3,0.8-9.4
				c0-48.6,0-97.3,0-145.9c0-1.5-0.2-2.9-0.3-5c-4.8,0-9.5,0-14.1,0c-9.5,0.1-19-0.4-28.5,0.5c-15,1.4-18.1,4.5-22.1,19.2
				c-0.7,2.7-1,5.5-5.2,5.2c-2.6-0.2-3.6-1-3.4-3.6c0.9-12.5,1.8-24.9,2.8-37.4c0.1-1,1.1-2.8,1.9-2.8c1.5-0.1,3.8,0.2,4.4,1.1
				c3.7,5.8,9.5,6.4,15.4,6.4c42.2,0.1,84.3,0.1,126.5-0.1c6.2,0,12.7-0.2,17-6.5c0.8-1.1,3.4-1,6.1-1.7
				c-0.8,15.2-1.6,29.4-2.4,43.5c-7,1.9-7.5,1.6-7.9-4.9c-1-13.8-4.4-18-18.2-18.7c-14.6-0.7-29.3-0.2-44.7-0.2c0,2.1,0,4,0,5.9
				c0,49,0,98,0,146.9c0,14.1,4.9,19.2,19.1,19.8c1.9,0.1,4.7,0.5,5.5,1.8c1.8,3-0.1,5.5-4,5.5c-19,0-38-0.1-57-0.2
				C830.6,550.2,825.6,550.3,820,550.3z"/>
			<path d="M1374.4,366c-0.6-7-0.5-6.9,5.8-6.8c21.3,0.1,42.6,0.1,64,0.1c2.1,0,4.2,0,6.7,0c0,2.4,0,4.3,0,6.7
				c-3.1,0.3-6.4,0.6-9.6,1.1c-10.1,1.5-13.8,5.3-15,15.4c-0.2,1.6-0.2,3.3-0.2,5c0,41.6,0,83.3,0,124.9c0,3.2,0.3,6.3,0.6,9.5
				c0.9,9.6,6.6,15.2,15.5,17.2c16.9,3.6,34.1,4,51,0c14.2-3.3,21.2-14.1,25.6-27c1.4-4,3.2-5.5,7.7-3c-0.9,4-1.8,8.2-2.8,12.3
				c-1.9,8.1-4.1,16.1-5.8,24.3c-0.8,3.8-2.5,5-6.3,4.9c-27.1-0.3-54.3-0.5-81.5-0.5c-16.7,0-33.3,0.3-50,0.4c-6.4,0-6.4,0-5.7-6.6
				c4-0.5,8.1-0.7,12.1-1.6c7.8-1.8,12.4-7.3,12.4-15.3c0.1-47.8,0.1-95.6,0-143.4c0-10.3-4.5-15-14.9-16.5
				C1380.9,366.5,1377.8,366.3,1374.4,366z"/>
			<path d="M1628.7,636c-532.8,0-1065.5,0-1598.6,0C33.1,633.9,1622.3,633.1,1628.7,636z"/>
			<path d="M721.8,729.1c18.2,0,36.4,0,54.5,0c0,5.5,0,11.1,0,16.6c-0.4,0.4-0.8,0.7-1.2,1.1c-4.3-19.5-19.2-13.3-31.5-14.7
				c0,10.7,0,21,0,31.7c5.9,0,11.9,0.4,17.7-0.2c2-0.2,3.9-3.1,5.5-5c0.8-1,1-2.6,2.6-3.8c0,8.4,0,16.7,0,25.9
				c-1-1.1-1.4-1.4-1.6-1.8c-2.6-9.7-2.6-9.7-12.7-9.8c-3.8,0-7.6,0-11.2,0c0,10-0.3,19.4,0.3,28.8c0.1,1.9,3.5,4.9,5.6,5.1
				c6.4,0.6,13,0.4,19.4-0.2c5.8-0.5,9.3-4.6,11.7-9.8c0.6-1.3,1.8-2.3,2.8-3.4c0.4,0.3,0.8,0.6,1.3,0.8c-1.4,5.4-2.9,10.8-4.4,16.5
				c-19.5,0-39,0-58.6,0c-0.2-0.3-0.3-0.7-0.5-1c0.9-0.6,1.9-1.6,2.8-1.7c5.2-0.1,7.7-2.7,7.7-7.8c0-19.2,0.1-38.3,0.1-57.5
				c0-4.3-1.7-7-6.4-7.2c-1.3,0-2.6-0.7-3.9-1C721.7,730.3,721.7,729.7,721.8,729.1z"/>
			<path d="M1025.8,805.6c1.3-0.4,2.6-1.1,3.9-1.3c3.9-0.4,6.3-2.3,6.3-6.3c0.1-21.3,0-42.6,0-64.3c-6.7,0-13.2-0.5-19.5,0.3
				c-2.3,0.3-4.4,3.4-6.3,5.4c-1,1.1-1.3,2.7-2.6,4c-2.6-6.1-0.2-11.9-0.5-16.7c6.2,0.6,11.6,1.6,17,1.6c13.1,0.2,26.3,0.2,39.4,0
				c4.4-0.1,8.8-1.2,14.2-1.9c-0.3,4.7-0.7,10.3-1.2,15.9c0,0.3-1.3,1-1.5,0.9c-0.7-0.5-1.5-1.2-1.7-2c-2.5-7.7-2.7-7.8-10.7-7.8
				c-4.8,0-9.6,0-14.9,0c-0.1,2.1-0.4,3.9-0.4,5.6c0,18.3,0,36.6,0,54.9c0,8.1,0.3,8.4,8.5,10.5c0.6,0.1,1.1,0.6,1.5,1.1
				c0.2,0.2,0,0.6,0,1.5c-10.4,0-20.9,0-31.3,0C1026.1,806.4,1026,806,1025.8,805.6z"/>
			<path d="M617.5,730.3c-10.9,4.2-10.9,4.2-10.9,15.6c0,15.3,0,30.7,0,46c0,8.4,2.5,10.9,11,11.4c4.1,0.2,8.3,0.2,12.4,0
				c6.3-0.3,11-3.3,13.6-9.3c0.6-1.4,1.4-2.8,2-4.2c0.5,0.1,1,0.2,1.5,0.3c-0.1,1.5,0,3.1-0.3,4.6c-2.8,12.7-2.9,12.6-15.6,12.6
				c-13.7,0-27.3,0-41,0c-1.8,0-3.5,0-5.3,0c-0.1-0.6-0.2-1.1-0.4-1.7c1.2-0.5,2.3-1.2,3.6-1.4c4.3-0.5,6.8-2.6,6.8-7.1
				c0-19.7,0-39.3-0.1-59c0-5.1-3.5-6.2-7.7-6.6c-0.8-0.1-1.6-1.1-2.3-1.8c0.7-0.5,1.4-1.4,2.2-1.4c9.1-0.1,18.3-0.1,27.4,0
				C615.4,728.5,616.1,729.4,617.5,730.3z"/>
			<path d="M448,805.5c1.1-0.4,2.2-1,3.4-1.1c4.6-0.5,6.8-3.1,6.8-7.7c0-19,0-38,0-56.9c0-4.7-1.7-7.7-6.9-7.9
				c-1.1-0.1-2.1-0.6-3.3-1c2.5-3.2,28.4-3.5,32.4-0.2c-1.5,0.5-2.6,1.1-3.8,1.1c-5.1,0.2-7.1,3.1-7.1,7.7c0,18-0.2,36,0.2,53.9
				c0.1,7,2.9,9.3,10,9.8c4,0.3,8,0.3,12,0.2c7.4-0.1,12.7-3.3,15.5-10.4c0.5-1.2,1.6-2.2,2.5-3.3c0.5,0.2,0.9,0.5,1.4,0.7
				c-1.3,5.5-2.7,11.1-4,16.7c-19.7,0-39.1,0-58.6,0C448.3,806.6,448.1,806,448,805.5z"/>
			<path d="M1150,805.7c1.1-0.5,2.1-1.4,3.2-1.4c5-0.1,7.5-2.7,7.5-7.5c0.1-19.2,0.1-38.3,0.1-57.5c0-4.6-2.4-7.5-7.3-7.7
				c-1.1-0.1-2.1-0.5-3.5-1.9c0.9-0.5,1.9-1.3,2.8-1.4c8.8-0.1,17.6-0.1,26.4,0c0.9,0,1.8,0.9,2.8,1.3c-0.9,0.6-1.8,1.6-2.8,1.9
				c-6.3,1.4-7.2,2.5-7.2,9.2c0,18.2,0,36.3,0,54.5c0,6.8,1,7.8,7.9,9c0.9,0.2,1.6,0.8,2.4,1.3c-0.1,0.4-0.2,0.8-0.3,1.2
				c-10.5,0-21,0-31.6,0C1150.2,806.5,1150.1,806.1,1150,805.7z"/>
			<path d="M1554.3,726.6c4.1-1.2,6.7-0.2,8.4,4.1c2.2,5.5,5.1,10.8,8.3,17.3c3.1-6.3,6-11.4,8.2-16.8c1.6-4,3.8-6,8.4-4.6
				c-4.5,3.8-2.3,8.8-2.3,13.3c0,4.6-1.2,9.6,2.9,13.9c-3,0-5.7,0-8.4,0c2.9-6.4,0.8-13.1,0.3-20c-3.3,6.7-6.5,13.5-10.2,21.1
				c-3.6-7.3-6.7-13.7-9.9-20.1c-0.2,0.1-0.4,0.2-0.7,0.3c0,6.2,0,12.4,0,18.7c-1.3,0-3.6,0-6,0
				C1558,748.6,1558.6,730.9,1554.3,726.6z"/>
			<path d="M1525.8,726.1c8.6,0,16.3,0,24.5,0c-0.1,1.6-0.3,3.2-0.3,3.8c-3.2-0.7-6.3-1.4-10.2-2.3c0.8,9.5-1.3,18,1.5,26.4
				c-2,0-4.5,0-6.4,0c0-8.4,0-16.7,0-26c-2.9,0.6-6,1.2-9.4,1.9C1525.6,729,1525.7,727.5,1525.8,726.1z"/>
		</g>
	</g>
</g>
</svg>
